999
dxfrw 0.6.3
  0
SECTION
  2
HEADER
  9
$ACADVER
  1
AC1021
  9
$DWGCODEPAGE
  3
ANSI_1252
  9
$INSBASE
 10
0
 20
0
 30
0
  9
$EXTMIN
 10
-27.7
 20
43.00679881043686
 30
0
  9
$EXTMAX
 10
27.7
 20
96.99320118956315
 30
0
  9
$LIMMIN
 10
0
 20
0
  9
$LIMMAX
 10
420
 20
297
  9
$ORTHOMODE
 70
    0
  9
$REGENMODE
 70
    1
  9
$FILLMODE
 70
    1
  9
$QTEXTMODE
 70
    0
  9
$MIRRTEXT
 70
    0
  9
$LTSCALE
 40
1
  9
$ATTMODE
 70
    0
  9
$TEXTSIZE
 40
2.5
  9
$TRACEWID
 40
15.68
  9
$TEXTSTYLE
  7
STANDARD
  9
$CLAYER
  8
0
  9
$CELTYPE
  6
BYLAYER
  9
$CECOLOR
 62
  256
  9
$CELTSCALE
 40
1
  9
$DISPSILH
 70
    0
  9
$DIMSCALE
 40
2.5
  9
$DIMASZ
 40
2.5
  9
$DIMEXO
 40
0.625
  9
$DIMDLI
 40
3.75
  9
$DIMRND
 40
0
  9
$DIMDLE
 40
0
  9
$DIMEXE
 40
1.25
  9
$DIMTP
 40
0
  9
$DIMTM
 40
0
  9
$DIMTXT
 40
2.5
  9
$DIMCEN
 40
2.5
  9
$DIMTSZ
 40
0
  9
$DIMTOL
 70
    0
  9
$DIMLIM
 70
    0
  9
$DIMTIH
 70
    0
  9
$DIMTOH
 70
    0
  9
$DIMSE1
 70
    0
  9
$DIMSE2
 70
    0
  9
$DIMTAD
 70
    1
  9
$DIMZIN
 70
    8
  9
$DIMBLK
  1

  9
$DIMASO
 70
    1
  9
$DIMSHO
 70
    1
  9
$DIMPOST
  1

  9
$DIMAPOST
  1

  9
$DIMALT
 70
    0
  9
$DIMALTD
 70
    3
  9
$DIMALTF
 40
0.03937
  9
$DIMLFAC
 40
1
  9
$DIMTOFL
 70
    1
  9
$DIMTVP
 40
0
  9
$DIMTIX
 70
    0
  9
$DIMSOXD
 70
    0
  9
$DIMSAH
 70
    0
  9
$DIMBLK1
  1

  9
$DIMBLK2
  1

  9
$DIMSTYLE
  2
Standard
  9
$DIMCLRD
 70
    0
  9
$DIMCLRE
 70
    0
  9
$DIMCLRT
 70
    0
  9
$DIMTFAC
 40
1
  9
$DIMGAP
 40
0.625
  9
$DIMJUST
 70
    0
  9
$DIMSD1
 70
    0
  9
$DIMSD2
 70
    0
  9
$DIMTOLJ
 70
    0
  9
$DIMTZIN
 70
    8
  9
$DIMALTZ
 70
    0
  9
$DIMALTTZ
 70
    0
  9
$DIMUPT
 70
    0
  9
$DIMDEC
 70
    2
  9
$DIMTDEC
 70
    2
  9
$DIMALTU
 70
    2
  9
$DIMALTTD
 70
    3
  9
$DIMTXSTY
  7
STANDARD
  9
$DIMAUNIT
 70
    0
  9
$DIMADEC
 70
    0
  9
$DIMALTRND
 40
0
  9
$DIMAZIN
 70
    0
  9
$DIMDSEP
 70
   44
  9
$DIMATFIT
 70
    3
  9
$DIMFRAC
 70
    0
  9
$DIMLDRBLK
  1
STANDARD
  9
$DIMLUNIT
 70
    2
  9
$DIMLWD
 70
   -2
  9
$DIMLWE
 70
   -2
  9
$DIMTMOVE
 70
    0
  9
$DIMFXL
 40
1
  9
$DIMFXLON
 70
    0
  9
$DIMJOGANG
 40
0.7854
  9
$DIMTFILL
 70
    0
  9
$DIMTFILLCLR
 70
    0
  9
$DIMARCSYM
 70
    0
  9
$DIMLTYPE
  6

  9
$DIMLTEX1
  6

  9
$DIMLTEX2
  6

  9
$LUNITS
 70
    2
  9
$LUPREC
 70
    4
  9
$SKETCHINC
 40
1
  9
$FILLETRAD
 40
0
  9
$AUNITS
 70
    0
  9
$AUPREC
 70
    2
  9
$MENU
  1
.
  9
$ELEVATION
 40
0
  9
$PELEVATION
 40
0
  9
$THICKNESS
 40
0
  9
$LIMCHECK
 70
    0
  9
$CHAMFERA
 40
0
  9
$CHAMFERB
 40
0
  9
$CHAMFERC
 40
0
  9
$CHAMFERD
 40
0
  9
$SKPOLY
 70
    0
  9
$USRTIMER
 70
    1
  9
$ANGBASE
 50
0
  9
$ANGDIR
 70
    0
  9
$PDMODE
 70
   34
  9
$PDSIZE
 40
0
  9
$PLINEWID
 40
0
  9
$SPLFRAME
 70
    0
  9
$SPLINETYPE
 70
    2
  9
$SPLINESEGS
 70
    8
  9
$HANDSEED
  5
20000
  9
$SURFTAB1
 70
    6
  9
$SURFTAB2
 70
    6
  9
$SURFTYPE
 70
    6
  9
$SURFU
 70
    6
  9
$SURFV
 70
    6
  9
$UCSBASE
  2

  9
$UCSNAME
  2

  9
$UCSORG
 10
0
 20
0
 30
0
  9
$UCSXDIR
 10
1
 20
0
 30
0
  9
$UCSYDIR
 10
0
 20
1
 30
0
  9
$UCSORTHOREF
  2

  9
$UCSORTHOVIEW
 70
    0
  9
$UCSORGTOP
 10
0
 20
0
 30
0
  9
$UCSORGBOTTOM
 10
0
 20
0
 30
0
  9
$UCSORGLEFT
 10
0
 20
0
 30
0
  9
$UCSORGRIGHT
 10
0
 20
0
 30
0
  9
$UCSORGFRONT
 10
0
 20
0
 30
0
  9
$UCSORGBACK
 10
0
 20
0
 30
0
  9
$PUCSBASE
  2

  9
$PUCSNAME
  2

  9
$PUCSORG
 10
0
 20
0
 30
0
  9
$PUCSXDIR
 10
1
 20
0
 30
0
  9
$PUCSYDIR
 10
0
 20
1
 30
0
  9
$PUCSORTHOREF
  2

  9
$PUCSORTHOVIEW
 70
    0
  9
$PUCSORGTOP
 10
0
 20
0
 30
0
  9
$PUCSORGBOTTOM
 10
0
 20
0
 30
0
  9
$PUCSORGLEFT
 10
0
 20
0
 30
0
  9
$PUCSORGRIGHT
 10
0
 20
0
 30
0
  9
$PUCSORGFRONT
 10
0
 20
0
 30
0
  9
$PUCSORGBACK
 10
0
 20
0
 30
0
  9
$USERI1
 70
    0
  9
$USERI2
 70
    0
  9
$USERI3
 70
    0
  9
$USERI4
 70
    0
  9
$USERI5
 70
    0
  9
$USERR1
 40
0
  9
$USERR2
 40
0
  9
$USERR3
 40
0
  9
$USERR4
 40
0
  9
$USERR5
 40
0
  9
$WORLDVIEW
 70
    1
  9
$SHADEDGE
 70
    3
  9
$SHADEDIF
 70
   70
  9
$TILEMODE
 70
    1
  9
$MAXACTVP
 70
   64
  9
$PINSBASE
 10
0
 20
0
 30
0
  9
$PLIMCHECK
 70
    0
  9
$PEXTMIN
 10
0
 20
0
 30
0
  9
$PEXTMAX
 10
0
 20
0
 30
0
  9
$SNAPSTYLE
 70
    0
  9
$PLIMMIN
 10
0
 20
0
  9
$PLIMMAX
 10
297
 20
210
  9
$UNITMODE
 70
    0
  9
$VISRETAIN
 70
    1
  9
$PLINEGEN
 70
    0
  9
$PSLTSCALE
 70
    1
  9
$TREEDEPTH
 70
 3020
  9
$CMLSTYLE
  2
Standard
  9
$CMLJUST
 70
    0
  9
$CMLSCALE
 40
20
  9
$PROXYGRAPHICS
 70
    1
  9
$MEASUREMENT
 70
    1
  9
$CELWEIGHT
370
   -1
  9
$ENDCAPS
280
    0
  9
$JOINSTYLE
280
    0
  9
$LWDISPLAY
290
    0
  9
$INSUNITS
 70
    4
  9
$HYPERLINKBASE
  1

  9
$STYLESHEET
  1

  9
$XEDIT
290
    1
  9
$CEPSNTYPE
380
    0
  9
$PSTYLEMODE
290
    1
  9
$EXTNAMES
290
    1
  9
$PSVPSCALE
 40
1
  9
$OLESTARTUP
290
    0
  9
$SORTENTS
280
  127
  9
$INDEXCTL
280
    0
  9
$HIDETEXT
280
    1
  9
$XCLIPFRAME
290
    0
  9
$HALOGAP
280
    0
  9
$OBSCOLOR
 70
  257
  9
$OBSLTYPE
280
    0
  9
$INTERSECTIONDISPLAY
280
    0
  9
$INTERSECTIONCOLOR
 70
  257
  9
$DIMASSOC
280
    1
  9
$PROJECTNAME
  1

  9
$CAMERADISPLAY
290
    0
  9
$LENSLENGTH
 40
50
  9
$CAMERAHEIGHT
 40
0
  9
$STEPSPERSEC
 40
2
  9
$STEPSIZE
 40
50
  9
$3DDWFPREC
 40
2
  9
$PSOLWIDTH
 40
5
  9
$PSOLHEIGHT
 40
80
  9
$LOFTANG1
 40
1.570796326794897
  9
$LOFTANG2
 40
1.570796326794897
  9
$LOFTMAG1
 40
0
  9
$LOFTMAG2
 40
0
  9
$LOFTPARAM
 70
    7
  9
$LOFTNORMALS
280
    1
  9
$LATITUDE
 40
1
  9
$LONGITUDE
 40
1
  9
$NORTHDIRECTION
 40
0
  9
$TIMEZONE
 70
-8000
  9
$LIGHTGLYPHDISPLAY
280
    1
  9
$TILEMODELIGHTSYNCH
280
    1
  9
$SOLIDHIST
280
    1
  9
$SHOWHIST
280
    1
  9
$DWFFRAME
280
    2
  9
$DGNFRAME
280
    0
  9
$REALWORLDSCALE
290
    1
  9
$INTERFERECOLOR
 62
    1
  9
$CSHADOW
280
    0
  9
$SHADOWPLANELOCATION
 40
0
  0
ENDSEC
  0
SECTION
  2
CLASSES
  0
ENDSEC
  0
SECTION
  2
TABLES
  0
TABLE
  2
VPORT
  5
8
330
0
100
AcDbSymbolTable
 70
    1
  0
VPORT
  5
31
330
2
100
AcDbSymbolTableRecord
100
AcDbViewportTableRecord
  2
*ACTIVE
 70
    0
 10
0
 20
0
 11
1
 21
1
 12
36.05465169992579
 22
45.02895365143571
 13
0
 23
0
 14
10
 24
10
 15
10
 25
10
 16
0
 26
0
 36
1
 17
0
 27
0
 37
0
 40
71.87313755902238
 41
1.732749178532311
 42
50
 43
0
 44
0
 50
0
 51
0
 71
    0
 72
  100
 73
    1
 74
    3
 75
    0
 76
    1
 77
    0
 78
    0
281
    0
 65
    1
110
0
120
0
130
0
111
1
121
0
131
0
112
0
122
1
132
0
 79
    0
146
0
348
10020
 60
    7
 61
    5
292
1
282
    1
141
0
142
0
 63
  250
421
3358443
  0
ENDTAB
  0
TABLE
  2
LTYPE
  5
5
330
0
100
AcDbSymbolTable
 70
    4
  0
LTYPE
  5
14
330
5
100
AcDbSymbolTableRecord
100
AcDbLinetypeTableRecord
  2
ByBlock
 70
    0
  3

 72
   65
 73
    0
 40
0
  0
LTYPE
  5
15
330
5
100
AcDbSymbolTableRecord
100
AcDbLinetypeTableRecord
  2
ByLayer
 70
    0
  3

 72
   65
 73
    0
 40
0
  0
LTYPE
  5
16
330
5
100
AcDbSymbolTableRecord
100
AcDbLinetypeTableRecord
  2
Continuous
 70
    0
  3
Solid line
 72
   65
 73
    0
 40
0
  0
LTYPE
  5
32
330
5
100
AcDbSymbolTableRecord
100
AcDbLinetypeTableRecord
  2
DOT
 70
    0
  3
Dot . . . . . . . . . . . . . . . . . . . . . .
 72
   65
 73
    2
 40
6.35
 49
0
 74
    0
 49
-6.35
 74
    0
  0
LTYPE
  5
33
330
5
100
AcDbSymbolTableRecord
100
AcDbLinetypeTableRecord
  2
DOTTINY
 70
    0
  3
Dot (.15x) .....................................
 72
   65
 73
    2
 40
0.9525
 49
0
 74
    0
 49
-0.9525
 74
    0
  0
LTYPE
  5
34
330
5
100
AcDbSymbolTableRecord
100
AcDbLinetypeTableRecord
  2
DOT2
 70
    0
  3
Dot (.5x) .....................................
 72
   65
 73
    2
 40
3.175
 49
0
 74
    0
 49
-3.175
 74
    0
  0
LTYPE
  5
35
330
5
100
AcDbSymbolTableRecord
100
AcDbLinetypeTableRecord
  2
DOTX2
 70
    0
  3
Dot (2x) .  .  .  .  .  .  .  .  .  .  .  .  .
 72
   65
 73
    2
 40
12.7
 49
0
 74
    0
 49
-12.7
 74
    0
  0
LTYPE
  5
36
330
5
100
AcDbSymbolTableRecord
100
AcDbLinetypeTableRecord
  2
DASHED
 70
    0
  3
Dashed _ _ _ _ _ _ _ _ _ _ _ _ _ _ _ _ _
 72
   65
 73
    2
 40
19.05
 49
12.7
 74
    0
 49
-6.35
 74
    0
  0
LTYPE
  5
37
330
5
100
AcDbSymbolTableRecord
100
AcDbLinetypeTableRecord
  2
DASHEDTINY
 70
    0
  3
Dashed (.15x) _ _ _ _ _ _ _ _ _ _ _ _ _ _ _ _ _
 72
   65
 73
    2
 40
2.8575
 49
1.905
 74
    0
 49
-0.9525
 74
    0
  0
LTYPE
  5
38
330
5
100
AcDbSymbolTableRecord
100
AcDbLinetypeTableRecord
  2
DASHED2
 70
    0
  3
Dashed (.5x) _ _ _ _ _ _ _ _ _ _ _ _ _ _ _ _ _
 72
   65
 73
    2
 40
9.524999999999999
 49
6.35
 74
    0
 49
-3.175
 74
    0
  0
LTYPE
  5
39
330
5
100
AcDbSymbolTableRecord
100
AcDbLinetypeTableRecord
  2
DASHEDX2
 70
    0
  3
Dashed (2x) ____  ____  ____  ____  ____  ___
 72
   65
 73
    2
 40
38.09999999999999
 49
25.4
 74
    0
 49
-12.7
 74
    0
  0
LTYPE
  5
3A
330
5
100
AcDbSymbolTableRecord
100
AcDbLinetypeTableRecord
  2
DASHDOT
 70
    0
  3
Dash dot __ . __ . __ . __ . __ . __ . __ . __
 72
   65
 73
    4
 40
25.4
 49
12.7
 74
    0
 49
-6.35
 74
    0
 49
0
 74
    0
 49
-6.35
 74
    0
  0
LTYPE
  5
3B
330
5
100
AcDbSymbolTableRecord
100
AcDbLinetypeTableRecord
  2
DASHDOTTINY
 70
    0
  3
Dash dot (.15x) _._._._._._._._._._._._._._._.
 72
   65
 73
    4
 40
3.81
 49
1.905
 74
    0
 49
-0.9525
 74
    0
 49
0
 74
    0
 49
-0.9525
 74
    0
  0
LTYPE
  5
3C
330
5
100
AcDbSymbolTableRecord
100
AcDbLinetypeTableRecord
  2
DASHDOT2
 70
    0
  3
Dash dot (.5x) _._._._._._._._._._._._._._._.
 72
   65
 73
    4
 40
12.7
 49
6.35
 74
    0
 49
-3.175
 74
    0
 49
0
 74
    0
 49
-3.175
 74
    0
  0
LTYPE
  5
3D
330
5
100
AcDbSymbolTableRecord
100
AcDbLinetypeTableRecord
  2
DASHDOTX2
 70
    0
  3
Dash dot (2x) ____  .  ____  .  ____  .  ___
 72
   65
 73
    4
 40
50.8
 49
25.4
 74
    0
 49
-12.7
 74
    0
 49
0
 74
    0
 49
-12.7
 74
    0
  0
LTYPE
  5
3E
330
5
100
AcDbSymbolTableRecord
100
AcDbLinetypeTableRecord
  2
DIVIDE
 70
    0
  3
Divide ____ . . ____ . . ____ . . ____ . . ____
 72
   65
 73
    6
 40
31.75
 49
12.7
 74
    0
 49
-6.35
 74
    0
 49
0
 74
    0
 49
-6.35
 74
    0
 49
0
 74
    0
 49
-6.35
 74
    0
  0
LTYPE
  5
3F
330
5
100
AcDbSymbolTableRecord
100
AcDbLinetypeTableRecord
  2
DIVIDETINY
 70
    0
  3
Divide (.15x) __..__..__..__..__..__..__..__.._
 72
   65
 73
    6
 40
4.7625
 49
1.905
 74
    0
 49
-0.9525
 74
    0
 49
0
 74
    0
 49
-0.9525
 74
    0
 49
0
 74
    0
 49
-0.9525
 74
    0
  0
LTYPE
  5
40
330
5
100
AcDbSymbolTableRecord
100
AcDbLinetypeTableRecord
  2
DIVIDE2
 70
    0
  3
Divide (.5x) __..__..__..__..__..__..__..__.._
 72
   65
 73
    6
 40
15.875
 49
6.35
 74
    0
 49
-3.175
 74
    0
 49
0
 74
    0
 49
-3.175
 74
    0
 49
0
 74
    0
 49
-3.175
 74
    0
  0
LTYPE
  5
41
330
5
100
AcDbSymbolTableRecord
100
AcDbLinetypeTableRecord
  2
DIVIDEX2
 70
    0
  3
Divide (2x) ________  .  .  ________  .  .  _
 72
   65
 73
    6
 40
63.5
 49
25.4
 74
    0
 49
-12.7
 74
    0
 49
0
 74
    0
 49
-12.7
 74
    0
 49
0
 74
    0
 49
-12.7
 74
    0
  0
LTYPE
  5
42
330
5
100
AcDbSymbolTableRecord
100
AcDbLinetypeTableRecord
  2
BORDER
 70
    0
  3
Border __ __ . __ __ . __ __ . __ __ . __ __ .
 72
   65
 73
    6
 40
44.45
 49
12.7
 74
    0
 49
-6.35
 74
    0
 49
12.7
 74
    0
 49
-6.35
 74
    0
 49
0
 74
    0
 49
-6.35
 74
    0
  0
LTYPE
  5
43
330
5
100
AcDbSymbolTableRecord
100
AcDbLinetypeTableRecord
  2
BORDERTINY
 70
    0
  3
Border (.15x) __.__.__.__.__.__.__.__.__.__.__.
 72
   65
 73
    6
 40
6.6675
 49
1.905
 74
    0
 49
-0.9525
 74
    0
 49
1.905
 74
    0
 49
-0.9525
 74
    0
 49
0
 74
    0
 49
-0.9525
 74
    0
  0
LTYPE
  5
44
330
5
100
AcDbSymbolTableRecord
100
AcDbLinetypeTableRecord
  2
BORDER2
 70
    0
  3
Border (.5x) __.__.__.__.__.__.__.__.__.__.__.
 72
   65
 73
    6
 40
22.225
 49
6.35
 74
    0
 49
-3.175
 74
    0
 49
6.35
 74
    0
 49
-3.175
 74
    0
 49
0
 74
    0
 49
-3.175
 74
    0
  0
LTYPE
  5
45
330
5
100
AcDbSymbolTableRecord
100
AcDbLinetypeTableRecord
  2
BORDERX2
 70
    0
  3
Border (2x) ____  ____  .  ____  ____  .  ___
 72
   65
 73
    6
 40
88.89999999999999
 49
25.4
 74
    0
 49
-12.7
 74
    0
 49
25.4
 74
    0
 49
-12.7
 74
    0
 49
0
 74
    0
 49
-12.7
 74
    0
  0
LTYPE
  5
46
330
5
100
AcDbSymbolTableRecord
100
AcDbLinetypeTableRecord
  2
CENTER
 70
    0
  3
Center ____ _ ____ _ ____ _ ____ _ ____ _ ____
 72
   65
 73
    4
 40
50.8
 49
31.75
 74
    0
 49
-6.35
 74
    0
 49
6.35
 74
    0
 49
-6.35
 74
    0
  0
LTYPE
  5
47
330
5
100
AcDbSymbolTableRecord
100
AcDbLinetypeTableRecord
  2
CENTERTINY
 70
    0
  3
Center (.15x) ___ _ ___ _ ___ _ ___ _ ___ _ ___
 72
   65
 73
    4
 40
7.619999999999999
 49
4.7625
 74
    0
 49
-0.9525
 74
    0
 49
0.9525
 74
    0
 49
-0.9525
 74
    0
  0
LTYPE
  5
48
330
5
100
AcDbSymbolTableRecord
100
AcDbLinetypeTableRecord
  2
CENTER2
 70
    0
  3
Center (.5x) ___ _ ___ _ ___ _ ___ _ ___ _ ___
 72
   65
 73
    4
 40
28.575
 49
19.05
 74
    0
 49
-3.175
 74
    0
 49
3.175
 74
    0
 49
-3.175
 74
    0
  0
LTYPE
  5
49
330
5
100
AcDbSymbolTableRecord
100
AcDbLinetypeTableRecord
  2
CENTERX2
 70
    0
  3
Center (2x) ________  __  ________  __  _____
 72
   65
 73
    4
 40
101.6
 49
63.5
 74
    0
 49
-12.7
 74
    0
 49
12.7
 74
    0
 49
-12.7
 74
    0
  0
ENDTAB
  0
TABLE
  2
LAYER
  5
2
330
0
100
AcDbSymbolTable
 70
    1
  0
LAYER
  5
10
330
2
100
AcDbSymbolTableRecord
100
AcDbLayerTableRecord
  2
0
 70
    0
 62
    7
  6
CONTINUOUS
370
   -3
390
F
  0
ENDTAB
  0
TABLE
  2
STYLE
  5
3
330
0
100
AcDbSymbolTable
 70
    3
  0
STYLE
  5
4A
330
2
100
AcDbSymbolTableRecord
100
AcDbTextStyleTableRecord
  2
Standard
 70
    0
 40
0
 41
1
 50
0
 71
    0
 42
1
  3
txt
  4

  0
ENDTAB
  0
TABLE
  2
VIEW
  5
6
330
0
100
AcDbSymbolTable
 70
    0
  0
ENDTAB
  0
TABLE
  2
UCS
  5
7
330
0
100
AcDbSymbolTable
 70
    0
  0
ENDTAB
  0
TABLE
  2
APPID
  5
9
330
0
100
AcDbSymbolTable
 70
    1
  0
APPID
  5
12
330
9
100
AcDbSymbolTableRecord
100
AcDbRegAppTableRecord
  2
ACAD
 70
    0
  0
APPID
  5
4B
330
9
100
AcDbSymbolTableRecord
100
AcDbRegAppTableRecord
  2
LibreCad
 70
    0
  0
ENDTAB
  0
TABLE
  2
DIMSTYLE
  5
A
330
0
100
AcDbSymbolTable
 70
    1
100
AcDbDimStyleTable
 71
    1
  0
DIMSTYLE
105
4C
330
A
100
AcDbSymbolTableRecord
100
AcDbDimStyleTableRecord
  2
Standard
 70
    0
 40
1
 41
2.5
 42
0.625
 43
0.38
 44
1.25
 45
0
 46
0
 47
0
 48
0
 49
1
140
2.5
141
0.09
142
2.5
143
25.4
144
1
145
0
146
1
147
0.625
148
0
 71
    0
 72
    0
 73
    0
 74
    1
 75
    0
 76
    0
 77
    0
 78
    1
 79
    0
170
    0
171
    2
172
    0
173
    0
174
    0
175
    0
176
    0
177
    0
178
    0
179
    0
271
    2
272
    4
273
    2
274
    2
275
    0
276
    0
277
    2
278
    0
279
    0
280
    0
281
    0
282
    0
283
    1
284
    0
285
    0
286
    0
288
    0
289
    3
340
standard
341

371
   -2
372
   -2
  0
ENDTAB
  0
TABLE
  2
BLOCK_RECORD
  5
1
330
0
100
AcDbSymbolTable
 70
    2
  0
BLOCK_RECORD
  5
1F
330
1
100
AcDbSymbolTableRecord
100
AcDbBlockTableRecord
  2
*Model_Space
 70
    0
280
    1
281
    0
  0
BLOCK_RECORD
  5
1E
330
1
100
AcDbSymbolTableRecord
100
AcDbBlockTableRecord
  2
*Paper_Space
 70
    0
280
    1
281
    0
  0
BLOCK_RECORD
  5
4D
330
1
100
AcDbSymbolTableRecord
100
AcDbBlockTableRecord
  2
FUSION
 70
    0
280
    1
281
    0
  0
ENDTAB
  0
ENDSEC
  0
SECTION
  2
BLOCKS
  0
BLOCK
  5
20
330
1F
100
AcDbEntity
  8
0
100
AcDbBlockBegin
  2
*Model_Space
 70
    0
 10
0
 20
0
 30
0
  3
*Model_Space
  1

  0
ENDBLK
  5
21
330
1F
100
AcDbEntity
  8
0
100
AcDbBlockEnd
  0
BLOCK
  5
1C
330
1B
100
AcDbEntity
  8
0
100
AcDbBlockBegin
  2
*Paper_Space
 70
    0
 10
0
 20
0
 30
0
  3
*Paper_Space
  1

  0
ENDBLK
  5
1D
330
1F
100
AcDbEntity
  8
0
100
AcDbBlockEnd
  0
BLOCK
  5
4E
330
4D
100
AcDbEntity
  8
0
100
AcDbBlockBegin
  2
FUSION
 70
    0
 10
0
 20
0
  3
FUSION
  1

  0
LWPOLYLINE
  5
50
100
AcDbEntity
  8
0
  6
ByLayer
 62
    0
370
   -1
100
AcDbPolyline
 90
    4
 70
    1
 43
0
 10
22.5
 20
72.5
 10
22.5
 20
67.5
 10
27.5
 20
67.5
 10
27.5
 20
72.5
  0
LWPOLYLINE
  5
51
100
AcDbEntity
  8
0
  6
ByLayer
 62
    0
370
   -1
100
AcDbPolyline
 90
    4
 70
    1
 43
0
 10
27.6
 20
68.90000000000001
 10
27.6
 20
67.90000000000001
 10
27.7
 20
67.90000000000001
 10
27.7
 20
68.90000000000001
  0
LWPOLYLINE
  5
52
100
AcDbEntity
  8
0
  6
ByLayer
 62
    0
370
   -1
100
AcDbPolyline
 90
    4
 70
    1
 43
0
 10
27.6
 20
71.09999999999999
 10
27.6
 20
72.09999999999999
 10
27.7
 20
72.09999999999999
 10
27.7
 20
71.09999999999999
  0
LWPOLYLINE
  5
53
100
AcDbEntity
  8
0
  6
ByLayer
 62
    0
370
   -1
100
AcDbPolyline
 90
    4
 70
    1
 43
0
 10
22.4
 20
71.09999999999999
 10
22.4
 20
72.09999999999999
 10
22.3
 20
72.09999999999999
 10
22.3
 20
71.09999999999999
  0
LWPOLYLINE
  5
54
100
AcDbEntity
  8
0
  6
ByLayer
 62
    0
370
   -1
100
AcDbPolyline
 90
    4
 70
    1
 43
0
 10
22.4
 20
68.90000000000001
 10
22.4
 20
67.90000000000001
 10
22.3
 20
67.90000000000001
 10
22.3
 20
68.90000000000001
  0
LWPOLYLINE
  5
55
100
AcDbEntity
  8
0
  6
ByLayer
 62
    0
370
   -1
100
AcDbPolyline
 90
    4
 70
    1
 43
0
 10
16.73341924270513
 20
85.24771066251802
 10
19.6723455041675
 20
81.20262569064327
 10
23.71743047604224
 20
84.14155195210563
 10
20.77850421457987
 20
88.18663692398037
  0
LWPOLYLINE
  5
56
100
AcDbEntity
  8
0
  6
ByLayer
 62
    0
370
   -1
100
AcDbPolyline
 90
    4
 70
    1
 43
0
 10
22.97543282227028
 20
85.33295426945982
 10
23.56321807456274
 20
84.52393727508486
 10
23.64411977400024
 20
84.58271580031411
 10
23.05633452170776
 20
85.39173279468906
  0
LWPOLYLINE
  5
57
100
AcDbEntity
  8
0
  6
ByLayer
 62
    0
370
   -1
100
AcDbPolyline
 90
    4
 70
    1
 43
0
 10
21.68230526722683
 20
87.1127916570847
 10
21.09452001493436
 20
87.92180865145964
 10
21.17542171437186
 20
87.9805871766889
 10
21.76320696666433
 20
87.17157018231394
  0
LWPOLYLINE
  5
58
100
AcDbEntity
  8
0
  6
ByLayer
 62
    0
370
   -1
100
AcDbPolyline
 90
    4
 70
    1
 43
0
 10
17.4754168964771
 20
84.05630834516384
 10
16.88763164418463
 20
84.86532533953878
 10
16.80672994474713
 20
84.80654681430954
 10
17.39451519703961
 20
83.99752981993458
  0
LWPOLYLINE
  5
59
100
AcDbEntity
  8
0
  6
ByLayer
 62
    0
370
   -1
100
AcDbPolyline
 90
    4
 70
    1
 43
0
 10
18.76854445152054
 20
82.27647095753895
 10
19.35632970381301
 20
81.46745396316402
 10
19.27542800437551
 20
81.40867543793476
 10
18.68764275208304
 20
82.21769243230972
  0
LWPOLYLINE
  5
5A
100
AcDbEntity
  8
0
  6
ByLayer
 62
    0
370
   -1
100
AcDbPolyline
 90
    4
 70
    1
 43
0
 10
4.575241082698434
 20
92.17131410257832
 10
9.330523664174201
 20
90.62622913070359
 10
10.87560863604894
 20
95.38151171217936
 10
6.120326054573171
 20
96.92659668405409
  0
LWPOLYLINE
  5
5B
100
AcDbEntity
  8
0
  6
ByLayer
 62
    0
370
   -1
100
AcDbPolyline
 90
    4
 70
    1
 43
0
 10
9.57503121267322
 20
95.90924115593381
 10
10.52608772896837
 20
95.60022416155886
 10
10.55698942840587
 20
95.69532981318837
 10
9.605932912110713
 20
96.00434680756331
  0
LWPOLYLINE
  5
5C
100
AcDbEntity
  8
0
  6
ByLayer
 62
    0
370
   -1
100
AcDbPolyline
 90
    4
 70
    1
 43
0
 10
7.482706876823881
 20
96.58907854355868
 10
6.531650360528726
 20
96.89809553793364
 10
6.562552059966221
 20
96.99320118956315
 10
7.513608576261376
 20
96.68418419518819
  0
LWPOLYLINE
  5
5D
100
AcDbEntity
  8
0
  6
ByLayer
 62
    0
370
   -1
100
AcDbPolyline
 90
    4
 70
    1
 43
0
 10
5.875818506074156
 20
91.6435846588239
 10
4.924761989779
 20
91.95260165319883
 10
4.893860290341506
 20
91.85749600156932
 10
5.844916806636659
 20
91.54847900719437
  0
LWPOLYLINE
  5
5E
100
AcDbEntity
  8
0
  6
ByLayer
 62
    0
370
   -1
100
AcDbPolyline
 90
    4
 70
    1
 43
0
 10
7.968142841923491
 20
90.963747271199
 10
8.919199358218645
 20
90.65473027682405
 10
8.888297658781154
 20
90.55962462519453
 10
7.937241142485998
 20
90.8686416195695
  0
LWPOLYLINE
  5
5F
100
AcDbEntity
  8
0
  6
ByLayer
 62
    0
370
   -1
100
AcDbPolyline
 90
    4
 70
    1
 43
0
 10
-9.330523664174201
 20
90.62622913070359
 10
-4.575241082698434
 20
92.17131410257832
 10
-6.12032605457317
 20
96.92659668405409
 10
-10.87560863604894
 20
95.38151171217936
  0
LWPOLYLINE
  5
60
100
AcDbEntity
  8
0
  6
ByLayer
 62
    0
370
   -1
100
AcDbPolyline
 90
    4
 70
    1
 43
0
 10
-7.48270687682388
 20
96.58907854355868
 10
-6.531650360528727
 20
96.89809553793363
 10
-6.562552059966221
 20
96.99320118956315
 10
-7.513608576261375
 20
96.68418419518819
  0
LWPOLYLINE
  5
61
100
AcDbEntity
  8
0
  6
ByLayer
 62
    0
370
   -1
100
AcDbPolyline
 90
    4
 70
    1
 43
0
 10
-9.575031212673219
 20
95.9092411559338
 10
-10.52608772896837
 20
95.60022416155886
 10
-10.55698942840587
 20
95.69532981318837
 10
-9.605932912110715
 20
96.00434680756331
  0
LWPOLYLINE
  5
62
100
AcDbEntity
  8
0
  6
ByLayer
 62
    0
370
   -1
100
AcDbPolyline
 90
    4
 70
    1
 43
0
 10
-7.968142841923493
 20
90.96374727119901
 10
-8.919199358218647
 20
90.65473027682405
 10
-8.888297658781152
 20
90.55962462519453
 10
-7.937241142485997
 20
90.86864161956949
  0
LWPOLYLINE
  5
63
100
AcDbEntity
  8
0
  6
ByLayer
 62
    0
370
   -1
100
AcDbPolyline
 90
    4
 70
    1
 43
0
 10
-5.875818506074154
 20
91.64358465882388
 10
-4.924761989779
 20
91.95260165319883
 10
-4.893860290341506
 20
91.85749600156932
 10
-5.844916806636659
 20
91.54847900719437
  0
LWPOLYLINE
  5
64
100
AcDbEntity
  8
0
  6
ByLayer
 62
    0
370
   -1
100
AcDbPolyline
 90
    4
 70
    1
 43
0
 10
-19.6723455041675
 20
81.20262569064327
 10
-16.73341924270513
 20
85.247710662518
 10
-20.77850421457987
 20
88.18663692398037
 10
-23.71743047604224
 20
84.14155195210564
  0
LWPOLYLINE
  5
65
100
AcDbEntity
  8
0
  6
ByLayer
 62
    0
370
   -1
100
AcDbPolyline
 90
    4
 70
    1
 43
0
 10
-21.68230526722683
 20
87.1127916570847
 10
-21.09452001493435
 20
87.92180865145964
 10
-21.17542171437185
 20
87.98058717668889
 10
-21.76320696666432
 20
87.17157018231394
  0
LWPOLYLINE
  5
66
100
AcDbEntity
  8
0
  6
ByLayer
 62
    0
370
   -1
100
AcDbPolyline
 90
    4
 70
    1
 43
0
 10
-22.97543282227027
 20
85.33295426945982
 10
-23.56321807456274
 20
84.52393727508486
 10
-23.64411977400025
 20
84.58271580031411
 10
-23.05633452170777
 20
85.39173279468906
  0
LWPOLYLINE
  5
67
100
AcDbEntity
  8
0
  6
ByLayer
 62
    0
370
   -1
100
AcDbPolyline
 90
    4
 70
    1
 43
0
 10
-18.76854445152055
 20
82.27647095753895
 10
-19.35632970381302
 20
81.467453963164
 10
-19.27542800437552
 20
81.40867543793476
 10
-18.68764275208305
 20
82.2176924323097
  0
LWPOLYLINE
  5
68
100
AcDbEntity
  8
0
  6
ByLayer
 62
    0
370
   -1
100
AcDbPolyline
 90
    4
 70
    1
 43
0
 10
-17.4754168964771
 20
84.05630834516383
 10
-16.88763164418463
 20
84.8653253395388
 10
-16.80672994474713
 20
84.80654681430954
 10
-17.39451519703961
 20
83.99752981993458
  0
LWPOLYLINE
  5
69
100
AcDbEntity
  8
0
  6
ByLayer
 62
    0
370
   -1
100
AcDbPolyline
 90
    4
 70
    1
 43
0
 10
-22.5
 20
67.5
 10
-22.5
 20
72.5
 10
-27.5
 20
72.5
 10
-27.5
 20
67.5
  0
LWPOLYLINE
  5
6A
100
AcDbEntity
  8
0
  6
ByLayer
 62
    0
370
   -1
100
AcDbPolyline
 90
    4
 70
    1
 43
0
 10
-27.6
 20
71.09999999999999
 10
-27.6
 20
72.09999999999999
 10
-27.7
 20
72.09999999999999
 10
-27.7
 20
71.09999999999999
  0
LWPOLYLINE
  5
6B
100
AcDbEntity
  8
0
  6
ByLayer
 62
    0
370
   -1
100
AcDbPolyline
 90
    4
 70
    1
 43
0
 10
-27.6
 20
68.90000000000001
 10
-27.6
 20
67.90000000000001
 10
-27.7
 20
67.90000000000001
 10
-27.7
 20
68.90000000000001
  0
LWPOLYLINE
  5
6C
100
AcDbEntity
  8
0
  6
ByLayer
 62
    0
370
   -1
100
AcDbPolyline
 90
    4
 70
    1
 43
0
 10
-22.4
 20
68.90000000000001
 10
-22.4
 20
67.90000000000001
 10
-22.3
 20
67.90000000000001
 10
-22.3
 20
68.90000000000001
  0
LWPOLYLINE
  5
6D
100
AcDbEntity
  8
0
  6
ByLayer
 62
    0
370
   -1
100
AcDbPolyline
 90
    4
 70
    1
 43
0
 10
-22.4
 20
71.09999999999999
 10
-22.4
 20
72.09999999999999
 10
-22.3
 20
72.09999999999999
 10
-22.3
 20
71.09999999999999
  0
LWPOLYLINE
  5
6E
100
AcDbEntity
  8
0
  6
ByLayer
 62
    0
370
   -1
100
AcDbPolyline
 90
    4
 70
    1
 43
0
 10
-16.73341924270513
 20
54.75228933748199
 10
-19.6723455041675
 20
58.79737430935673
 10
-23.71743047604224
 20
55.85844804789436
 10
-20.77850421457987
 20
51.81336307601963
  0
LWPOLYLINE
  5
6F
100
AcDbEntity
  8
0
  6
ByLayer
 62
    0
370
   -1
100
AcDbPolyline
 90
    4
 70
    1
 43
0
 10
-22.97543282227027
 20
54.66704573054019
 10
-23.56321807456274
 20
55.47606272491514
 10
-23.64411977400024
 20
55.41728419968589
 10
-23.05633452170776
 20
54.60826720531094
  0
LWPOLYLINE
  5
70
100
AcDbEntity
  8
0
  6
ByLayer
 62
    0
370
   -1
100
AcDbPolyline
 90
    4
 70
    1
 43
0
 10
-21.68230526722683
 20
52.8872083429153
 10
-21.09452001493435
 20
52.07819134854036
 10
-21.17542171437185
 20
52.01941282331111
 10
-21.76320696666432
 20
52.82842981768606
  0
LWPOLYLINE
  5
71
100
AcDbEntity
  8
0
  6
ByLayer
 62
    0
370
   -1
100
AcDbPolyline
 90
    4
 70
    1
 43
0
 10
-17.4754168964771
 20
55.94369165483617
 10
-16.88763164418463
 20
55.13467466046122
 10
-16.80672994474713
 20
55.19345318569047
 10
-17.39451519703961
 20
56.00247018006541
  0
LWPOLYLINE
  5
72
100
AcDbEntity
  8
0
  6
ByLayer
 62
    0
370
   -1
100
AcDbPolyline
 90
    4
 70
    1
 43
0
 10
-18.76854445152054
 20
57.72352904246105
 10
-19.35632970381301
 20
58.532546036836
 10
-19.27542800437552
 20
58.59132456206525
 10
-18.68764275208304
 20
57.7823075676903
  0
LWPOLYLINE
  5
73
100
AcDbEntity
  8
0
  6
ByLayer
 62
    0
370
   -1
100
AcDbPolyline
 90
    4
 70
    1
 43
0
 10
-4.575241082698434
 20
47.82868589742167
 10
-9.330523664174201
 20
49.37377086929641
 10
-10.87560863604894
 20
44.61848828782065
 10
-6.120326054573171
 20
43.07340331594591
  0
LWPOLYLINE
  5
74
100
AcDbEntity
  8
0
  6
ByLayer
 62
    0
370
   -1
100
AcDbPolyline
 90
    4
 70
    1
 43
0
 10
-9.575031212673217
 20
44.09075884406621
 10
-10.52608772896837
 20
44.39977583844115
 10
-10.55698942840587
 20
44.30467018681163
 10
-9.605932912110713
 20
43.99565319243668
  0
LWPOLYLINE
  5
75
100
AcDbEntity
  8
0
  6
ByLayer
 62
    0
370
   -1
100
AcDbPolyline
 90
    4
 70
    1
 43
0
 10
-7.482706876823881
 20
43.41092145644132
 10
-6.531650360528726
 20
43.10190446206637
 10
-6.56255205996622
 20
43.00679881043686
 10
-7.513608576261377
 20
43.31581580481181
  0
LWPOLYLINE
  5
76
100
AcDbEntity
  8
0
  6
ByLayer
 62
    0
370
   -1
100
AcDbPolyline
 90
    4
 70
    1
 43
0
 10
-5.875818506074154
 20
48.35641534117612
 10
-4.924761989779
 20
48.04739834680117
 10
-4.893860290341506
 20
48.14250399843068
 10
-5.844916806636659
 20
48.45152099280563
  0
LWPOLYLINE
  5
77
100
AcDbEntity
  8
0
  6
ByLayer
 62
    0
370
   -1
100
AcDbPolyline
 90
    4
 70
    1
 43
0
 10
-7.968142841923491
 20
49.036252728801
 10
-8.919199358218645
 20
49.34526972317595
 10
-8.888297658781148
 20
49.44037537480546
 10
-7.937241142485997
 20
49.13135838043051
  0
LWPOLYLINE
  5
78
100
AcDbEntity
  8
0
  6
ByLayer
 62
    0
370
   -1
100
AcDbPolyline
 90
    4
 70
    1
 43
0
 10
9.330523664174198
 20
49.37377086929641
 10
4.57524108269843
 20
47.82868589742168
 10
6.120326054573164
 20
43.07340331594591
 10
10.87560863604893
 20
44.61848828782064
  0
LWPOLYLINE
  5
79
100
AcDbEntity
  8
0
  6
ByLayer
 62
    0
370
   -1
100
AcDbPolyline
 90
    4
 70
    1
 43
0
 10
7.482706876823872
 20
43.41092145644132
 10
6.531650360528721
 20
43.10190446206637
 10
6.562552059966215
 20
43.00679881043686
 10
7.513608576261369
 20
43.31581580481181
  0
LWPOLYLINE
  5
7A
100
AcDbEntity
  8
0
  6
ByLayer
 62
    0
370
   -1
100
AcDbPolyline
 90
    4
 70
    1
 43
0
 10
9.575031212673213
 20
44.0907588440662
 10
10.52608772896836
 20
44.39977583844116
 10
10.55698942840586
 20
44.30467018681163
 10
9.605932912110706
 20
43.99565319243669
  0
LWPOLYLINE
  5
7B
100
AcDbEntity
  8
0
  6
ByLayer
 62
    0
370
   -1
100
AcDbPolyline
 90
    4
 70
    1
 43
0
 10
7.968142841923491
 20
49.036252728801
 10
8.919199358218641
 20
49.34526972317595
 10
8.888297658781147
 20
49.44037537480546
 10
7.937241142485993
 20
49.13135838043051
  0
LWPOLYLINE
  5
7C
100
AcDbEntity
  8
0
  6
ByLayer
 62
    0
370
   -1
100
AcDbPolyline
 90
    4
 70
    1
 43
0
 10
5.875818506074149
 20
48.35641534117612
 10
4.924761989778998
 20
48.04739834680117
 10
4.8938602903415
 20
48.14250399843069
 10
5.844916806636654
 20
48.45152099280564
  0
LWPOLYLINE
  5
7D
100
AcDbEntity
  8
0
  6
ByLayer
 62
    0
370
   -1
100
AcDbPolyline
 90
    4
 70
    1
 43
0
 10
19.6723455041675
 20
58.79737430935671
 10
16.73341924270513
 20
54.75228933748198
 10
20.77850421457986
 20
51.81336307601961
 10
23.71743047604223
 20
55.85844804789435
  0
LWPOLYLINE
  5
7E
100
AcDbEntity
  8
0
  6
ByLayer
 62
    0
370
   -1
100
AcDbPolyline
 90
    4
 70
    1
 43
0
 10
21.68230526722682
 20
52.88720834291529
 10
21.09452001493435
 20
52.07819134854034
 10
21.17542171437184
 20
52.01941282331109
 10
21.76320696666432
 20
52.82842981768604
  0
LWPOLYLINE
  5
7F
100
AcDbEntity
  8
0
  6
ByLayer
 62
    0
370
   -1
100
AcDbPolyline
 90
    4
 70
    1
 43
0
 10
22.97543282227026
 20
54.66704573054017
 10
23.56321807456274
 20
55.47606272491512
 10
23.64411977400023
 20
55.41728419968587
 10
23.05633452170776
 20
54.60826720531092
  0
LWPOLYLINE
  5
80
100
AcDbEntity
  8
0
  6
ByLayer
 62
    0
370
   -1
100
AcDbPolyline
 90
    4
 70
    1
 43
0
 10
18.76854445152054
 20
57.72352904246104
 10
19.35632970381301
 20
58.53254603683598
 10
19.27542800437552
 20
58.59132456206523
 10
18.68764275208304
 20
57.78230756769028
  0
LWPOLYLINE
  5
81
100
AcDbEntity
  8
0
  6
ByLayer
 62
    0
370
   -1
100
AcDbPolyline
 90
    4
 70
    1
 43
0
 10
17.4754168964771
 20
55.94369165483615
 10
16.88763164418463
 20
55.1346746604612
 10
16.80672994474713
 20
55.19345318569045
 10
17.3945151970396
 20
56.0024701800654
  0
LWPOLYLINE
  5
82
100
AcDbEntity
  8
0
  6
ByLayer
 62
    0
370
   -1
100
AcDbPolyline
 90
    4
 70
    1
 43
0
 10
-2.5
 20
87.5
 10
-2.5
 20
82.5
 10
2.5
 20
82.5
 10
2.5
 20
87.5
  0
LWPOLYLINE
  5
83
100
AcDbEntity
  8
0
  6
ByLayer
 62
    0
370
   -1
100
AcDbPolyline
 90
    4
 70
    1
 43
0
 10
2.6
 20
83.90000000000001
 10
2.6
 20
82.90000000000001
 10
2.7
 20
82.90000000000001
 10
2.7
 20
83.90000000000001
  0
LWPOLYLINE
  5
84
100
AcDbEntity
  8
0
  6
ByLayer
 62
    0
370
   -1
100
AcDbPolyline
 90
    4
 70
    1
 43
0
 10
2.6
 20
86.09999999999999
 10
2.600000000000001
 20
87.09999999999999
 10
2.7
 20
87.09999999999999
 10
2.7
 20
86.09999999999999
  0
LWPOLYLINE
  5
85
100
AcDbEntity
  8
0
  6
ByLayer
 62
    0
370
   -1
100
AcDbPolyline
 90
    4
 70
    1
 43
0
 10
-2.6
 20
86.09999999999999
 10
-2.6
 20
87.09999999999999
 10
-2.7
 20
87.09999999999999
 10
-2.7
 20
86.09999999999999
  0
LWPOLYLINE
  5
86
100
AcDbEntity
  8
0
  6
ByLayer
 62
    0
370
   -1
100
AcDbPolyline
 90
    4
 70
    1
 43
0
 10
-2.6
 20
83.90000000000001
 10
-2.600000000000001
 20
82.90000000000001
 10
-2.700000000000001
 20
82.90000000000001
 10
-2.7
 20
83.90000000000001
  0
LWPOLYLINE
  5
87
100
AcDbEntity
  8
0
  6
ByLayer
 62
    0
370
   -1
100
AcDbPolyline
 90
    4
 70
    1
 43
0
 10
-17.41603152110255
 20
73.0301561108237
 10
-12.66074893962679
 20
71.48507113894897
 10
-11.11566396775205
 20
76.24035372042474
 10
-15.87094654922782
 20
77.78543869229946
  0
LWPOLYLINE
  5
88
100
AcDbEntity
  8
0
  6
ByLayer
 62
    0
370
   -1
100
AcDbPolyline
 90
    4
 70
    1
 43
0
 10
-12.41624139112777
 20
76.76808316417916
 10
-11.46518487483262
 20
76.45906616980423
 10
-11.43428317539512
 20
76.55417182143374
 10
-12.38533969169027
 20
76.86318881580868
  0
LWPOLYLINE
  5
89
100
AcDbEntity
  8
0
  6
ByLayer
 62
    0
370
   -1
100
AcDbPolyline
 90
    4
 70
    1
 43
0
 10
-14.50856572697711
 20
77.44792055180406
 10
-15.45962224327226
 20
77.75693754617902
 10
-15.42872054383477
 20
77.85204319780853
 10
-14.47766402753961
 20
77.54302620343357
  0
LWPOLYLINE
  5
8A
100
AcDbEntity
  8
0
  6
ByLayer
 62
    0
370
   -1
100
AcDbPolyline
 90
    4
 70
    1
 43
0
 10
-16.11545409772684
 20
72.50242666706927
 10
-17.06651061402199
 20
72.8114436614442
 10
-17.09741231345948
 20
72.71633800981469
 10
-16.14635579716433
 20
72.40732101543975
  0
LWPOLYLINE
  5
8B
100
AcDbEntity
  8
0
  6
ByLayer
 62
    0
370
   -1
100
AcDbPolyline
 90
    4
 70
    1
 43
0
 10
-14.0231297618775
 20
71.82258927944437
 10
-13.07207324558234
 20
71.51357228506943
 10
-13.10297494501984
 20
71.41846663343991
 10
-14.05403146131499
 20
71.72748362781486
  0
LWPOLYLINE
  5
8C
100
AcDbEntity
  8
0
  6
ByLayer
 62
    0
370
   -1
100
AcDbPolyline
 90
    4
 70
    1
 43
0
 10
-8.263699429180914
 20
54.37273946770723
 10
-5.324773167718547
 20
58.41782443958197
 10
-9.369858139593283
 20
61.35675070104433
 10
-12.30878440105565
 20
57.3116657291696
  0
LWPOLYLINE
  5
8D
100
AcDbEntity
  8
0
  6
ByLayer
 62
    0
370
   -1
100
AcDbPolyline
 90
    4
 70
    1
 43
0
 10
-10.27365919224024
 20
60.28290543414866
 10
-9.685873939947768
 20
61.0919224285236
 10
-9.766775639385262
 20
61.15070095375285
 10
-10.35456089167774
 20
60.3416839593779
  0
LWPOLYLINE
  5
8E
100
AcDbEntity
  8
0
  6
ByLayer
 62
    0
370
   -1
100
AcDbPolyline
 90
    4
 70
    1
 43
0
 10
-11.56678674728368
 20
58.50306804652377
 10
-12.15457199957616
 20
57.69405105214882
 10
-12.23547369901365
 20
57.75282957737807
 10
-11.64768844672118
 20
58.56184657175302
  0
LWPOLYLINE
  5
8F
100
AcDbEntity
  8
0
  6
ByLayer
 62
    0
370
   -1
100
AcDbPolyline
 90
    4
 70
    1
 43
0
 10
-7.359898376533957
 20
55.44658473460291
 10
-7.94768362882643
 20
54.63756774022796
 10
-7.866781929388935
 20
54.57878921499871
 10
-7.278996677096462
 20
55.38780620937366
  0
LWPOLYLINE
  5
90
100
AcDbEntity
  8
0
  6
ByLayer
 62
    0
370
   -1
100
AcDbPolyline
 90
    4
 70
    1
 43
0
 10
-6.066770821490515
 20
57.2264221222278
 10
-5.478985569198043
 20
58.03543911660275
 10
-5.398083869760542
 20
57.97666059137349
 10
-5.985869122053018
 20
57.16764359699854
  0
LWPOLYLINE
  5
91
100
AcDbEntity
  8
0
  6
ByLayer
 62
    0
370
   -1
100
AcDbPolyline
 90
    4
 70
    1
 43
0
 10
12.30878440105565
 20
57.3116657291696
 10
9.369858139593282
 20
61.35675070104433
 10
5.324773167718543
 20
58.41782443958197
 10
8.263699429180908
 20
54.37273946770723
  0
LWPOLYLINE
  5
92
100
AcDbEntity
  8
0
  6
ByLayer
 62
    0
370
   -1
100
AcDbPolyline
 90
    4
 70
    1
 43
0
 10
6.066770821490509
 20
57.22642212222779
 10
5.478985569198038
 20
58.03543911660275
 10
5.398083869760543
 20
57.97666059137349
 10
5.985869122053016
 20
57.16764359699855
  0
LWPOLYLINE
  5
93
100
AcDbEntity
  8
0
  6
ByLayer
 62
    0
370
   -1
100
AcDbPolyline
 90
    4
 70
    1
 43
0
 10
7.359898376533952
 20
55.44658473460291
 10
7.947683628826426
 20
54.63756774022796
 10
7.86678192938893
 20
54.57878921499871
 10
7.278996677096458
 20
55.38780620937366
  0
LWPOLYLINE
  5
94
100
AcDbEntity
  8
0
  6
ByLayer
 62
    0
370
   -1
100
AcDbPolyline
 90
    4
 70
    1
 43
0
 10
11.56678674728368
 20
58.50306804652377
 10
12.15457199957615
 20
57.69405105214882
 10
12.23547369901365
 20
57.75282957737807
 10
11.64768844672117
 20
58.56184657175302
  0
LWPOLYLINE
  5
95
100
AcDbEntity
  8
0
  6
ByLayer
 62
    0
370
   -1
100
AcDbPolyline
 90
    4
 70
    1
 43
0
 10
10.27365919224024
 20
60.28290543414866
 10
9.685873939947768
 20
61.0919224285236
 10
9.76677563938526
 20
61.15070095375285
 10
10.35456089167773
 20
60.3416839593779
  0
LWPOLYLINE
  5
96
100
AcDbEntity
  8
0
  6
ByLayer
 62
    0
370
   -1
100
AcDbPolyline
 90
    4
 70
    1
 43
0
 10
15.87094654922782
 20
77.78543869229945
 10
11.11566396775205
 20
76.24035372042472
 10
12.66074893962679
 20
71.48507113894895
 10
17.41603152110256
 20
73.03015611082368
  0
LWPOLYLINE
  5
97
100
AcDbEntity
  8
0
  6
ByLayer
 62
    0
370
   -1
100
AcDbPolyline
 90
    4
 70
    1
 43
0
 10
14.0231297618775
 20
71.82258927944437
 10
13.07207324558235
 20
71.51357228506942
 10
13.10297494501984
 20
71.41846663343989
 10
14.05403146131499
 20
71.72748362781485
  0
LWPOLYLINE
  5
98
100
AcDbEntity
  8
0
  6
ByLayer
 62
    0
370
   -1
100
AcDbPolyline
 90
    4
 70
    1
 43
0
 10
16.11545409772684
 20
72.50242666706924
 10
17.06651061402199
 20
72.8114436614442
 10
17.09741231345949
 20
72.71633800981468
 10
16.14635579716433
 20
72.40732101543973
  0
LWPOLYLINE
  5
99
100
AcDbEntity
  8
0
  6
ByLayer
 62
    0
370
   -1
100
AcDbPolyline
 90
    4
 70
    1
 43
0
 10
14.50856572697711
 20
77.44792055180405
 10
15.45962224327226
 20
77.75693754617899
 10
15.42872054383477
 20
77.85204319780851
 10
14.47766402753962
 20
77.54302620343356
  0
LWPOLYLINE
  5
9A
100
AcDbEntity
  8
0
  6
ByLayer
 62
    0
370
   -1
100
AcDbPolyline
 90
    4
 70
    1
 43
0
 10
12.41624139112777
 20
76.76808316417916
 10
11.46518487483262
 20
76.45906616980422
 10
11.43428317539513
 20
76.55417182143373
 10
12.38533969169028
 20
76.86318881580868
  0
LWPOLYLINE
  5
9B
100
AcDbEntity
  8
0
  6
ByLayer
 62
    0
370
   -1
100
AcDbPolyline
 90
    4
 70
    1
 43
0
 10
-2.5
 20
72.5
 10
-2.5
 20
67.5
 10
2.5
 20
67.5
 10
2.5
 20
72.5
  0
LWPOLYLINE
  5
9C
100
AcDbEntity
  8
0
  6
ByLayer
 62
    0
370
   -1
100
AcDbPolyline
 90
    4
 70
    1
 43
0
 10
2.6
 20
68.90000000000001
 10
2.6
 20
67.90000000000001
 10
2.7
 20
67.90000000000001
 10
2.7
 20
68.90000000000001
  0
LWPOLYLINE
  5
9D
100
AcDbEntity
  8
0
  6
ByLayer
 62
    0
370
   -1
100
AcDbPolyline
 90
    4
 70
    1
 43
0
 10
2.6
 20
71.09999999999999
 10
2.600000000000001
 20
72.09999999999999
 10
2.7
 20
72.09999999999999
 10
2.7
 20
71.09999999999999
  0
LWPOLYLINE
  5
9E
100
AcDbEntity
  8
0
  6
ByLayer
 62
    0
370
   -1
100
AcDbPolyline
 90
    4
 70
    1
 43
0
 10
-2.6
 20
71.09999999999999
 10
-2.6
 20
72.09999999999999
 10
-2.7
 20
72.09999999999999
 10
-2.7
 20
71.09999999999999
  0
LWPOLYLINE
  5
9F
100
AcDbEntity
  8
0
  6
ByLayer
 62
    0
370
   -1
100
AcDbPolyline
 90
    4
 70
    1
 43
0
 10
-2.6
 20
68.90000000000001
 10
-2.600000000000001
 20
67.90000000000001
 10
-2.700000000000001
 20
67.90000000000001
 10
-2.7
 20
68.90000000000001
  0
ENDBLK
  5
4F
330
4D
100
AcDbEntity
  8
0
100
AcDbBlockEnd
  0
ENDSEC
  0
SECTION
  2
ENTITIES
  0
LWPOLYLINE
  5
A0
100
AcDbEntity
  8
0
  6
ByLayer
 62
    0
370
   -1
100
AcDbPolyline
 90
    4
 70
    1
 43
0
 10
22.5
 20
72.5
 10
22.5
 20
67.5
 10
27.5
 20
67.5
 10
27.5
 20
72.5
  0
LWPOLYLINE
  5
A1
100
AcDbEntity
  8
0
  6
ByLayer
 62
    0
370
   -1
100
AcDbPolyline
 90
    4
 70
    1
 43
0
 10
27.6
 20
68.90000000000001
 10
27.6
 20
67.90000000000001
 10
27.7
 20
67.90000000000001
 10
27.7
 20
68.90000000000001
  0
LWPOLYLINE
  5
A2
100
AcDbEntity
  8
0
  6
ByLayer
 62
    0
370
   -1
100
AcDbPolyline
 90
    4
 70
    1
 43
0
 10
27.6
 20
71.09999999999999
 10
27.6
 20
72.09999999999999
 10
27.7
 20
72.09999999999999
 10
27.7
 20
71.09999999999999
  0
LWPOLYLINE
  5
A3
100
AcDbEntity
  8
0
  6
ByLayer
 62
    0
370
   -1
100
AcDbPolyline
 90
    4
 70
    1
 43
0
 10
22.4
 20
71.09999999999999
 10
22.4
 20
72.09999999999999
 10
22.3
 20
72.09999999999999
 10
22.3
 20
71.09999999999999
  0
LWPOLYLINE
  5
A4
100
AcDbEntity
  8
0
  6
ByLayer
 62
    0
370
   -1
100
AcDbPolyline
 90
    4
 70
    1
 43
0
 10
22.4
 20
68.90000000000001
 10
22.4
 20
67.90000000000001
 10
22.3
 20
67.90000000000001
 10
22.3
 20
68.90000000000001
  0
LWPOLYLINE
  5
A5
100
AcDbEntity
  8
0
  6
ByLayer
 62
    0
370
   -1
100
AcDbPolyline
 90
    4
 70
    1
 43
0
 10
16.73341924270513
 20
85.24771066251802
 10
19.6723455041675
 20
81.20262569064327
 10
23.71743047604224
 20
84.14155195210563
 10
20.77850421457987
 20
88.18663692398037
  0
LWPOLYLINE
  5
A6
100
AcDbEntity
  8
0
  6
ByLayer
 62
    0
370
   -1
100
AcDbPolyline
 90
    4
 70
    1
 43
0
 10
22.97543282227028
 20
85.33295426945982
 10
23.56321807456274
 20
84.52393727508486
 10
23.64411977400024
 20
84.58271580031411
 10
23.05633452170776
 20
85.39173279468906
  0
LWPOLYLINE
  5
A7
100
AcDbEntity
  8
0
  6
ByLayer
 62
    0
370
   -1
100
AcDbPolyline
 90
    4
 70
    1
 43
0
 10
21.68230526722683
 20
87.1127916570847
 10
21.09452001493436
 20
87.92180865145964
 10
21.17542171437186
 20
87.9805871766889
 10
21.76320696666433
 20
87.17157018231394
  0
LWPOLYLINE
  5
A8
100
AcDbEntity
  8
0
  6
ByLayer
 62
    0
370
   -1
100
AcDbPolyline
 90
    4
 70
    1
 43
0
 10
17.4754168964771
 20
84.05630834516384
 10
16.88763164418463
 20
84.86532533953878
 10
16.80672994474713
 20
84.80654681430954
 10
17.39451519703961
 20
83.99752981993458
  0
LWPOLYLINE
  5
A9
100
AcDbEntity
  8
0
  6
ByLayer
 62
    0
370
   -1
100
AcDbPolyline
 90
    4
 70
    1
 43
0
 10
18.76854445152054
 20
82.27647095753895
 10
19.35632970381301
 20
81.46745396316402
 10
19.27542800437551
 20
81.40867543793476
 10
18.68764275208304
 20
82.21769243230972
  0
LWPOLYLINE
  5
AA
100
AcDbEntity
  8
0
  6
ByLayer
 62
    0
370
   -1
100
AcDbPolyline
 90
    4
 70
    1
 43
0
 10
4.575241082698434
 20
92.17131410257832
 10
9.330523664174201
 20
90.62622913070359
 10
10.87560863604894
 20
95.38151171217936
 10
6.120326054573171
 20
96.92659668405409
  0
LWPOLYLINE
  5
AB
100
AcDbEntity
  8
0
  6
ByLayer
 62
    0
370
   -1
100
AcDbPolyline
 90
    4
 70
    1
 43
0
 10
9.57503121267322
 20
95.90924115593381
 10
10.52608772896837
 20
95.60022416155886
 10
10.55698942840587
 20
95.69532981318837
 10
9.605932912110713
 20
96.00434680756331
  0
LWPOLYLINE
  5
AC
100
AcDbEntity
  8
0
  6
ByLayer
 62
    0
370
   -1
100
AcDbPolyline
 90
    4
 70
    1
 43
0
 10
7.482706876823881
 20
96.58907854355868
 10
6.531650360528726
 20
96.89809553793364
 10
6.562552059966221
 20
96.99320118956315
 10
7.513608576261376
 20
96.68418419518819
  0
LWPOLYLINE
  5
AD
100
AcDbEntity
  8
0
  6
ByLayer
 62
    0
370
   -1
100
AcDbPolyline
 90
    4
 70
    1
 43
0
 10
5.875818506074156
 20
91.6435846588239
 10
4.924761989779
 20
91.95260165319883
 10
4.893860290341506
 20
91.85749600156932
 10
5.844916806636659
 20
91.54847900719437
  0
LWPOLYLINE
  5
AE
100
AcDbEntity
  8
0
  6
ByLayer
 62
    0
370
   -1
100
AcDbPolyline
 90
    4
 70
    1
 43
0
 10
7.968142841923491
 20
90.963747271199
 10
8.919199358218645
 20
90.65473027682405
 10
8.888297658781154
 20
90.55962462519453
 10
7.937241142485998
 20
90.8686416195695
  0
LWPOLYLINE
  5
AF
100
AcDbEntity
  8
0
  6
ByLayer
 62
    0
370
   -1
100
AcDbPolyline
 90
    4
 70
    1
 43
0
 10
-9.330523664174201
 20
90.62622913070359
 10
-4.575241082698434
 20
92.17131410257832
 10
-6.12032605457317
 20
96.92659668405409
 10
-10.87560863604894
 20
95.38151171217936
  0
LWPOLYLINE
  5
B0
100
AcDbEntity
  8
0
  6
ByLayer
 62
    0
370
   -1
100
AcDbPolyline
 90
    4
 70
    1
 43
0
 10
-7.48270687682388
 20
96.58907854355868
 10
-6.531650360528727
 20
96.89809553793363
 10
-6.562552059966221
 20
96.99320118956315
 10
-7.513608576261375
 20
96.68418419518819
  0
LWPOLYLINE
  5
B1
100
AcDbEntity
  8
0
  6
ByLayer
 62
    0
370
   -1
100
AcDbPolyline
 90
    4
 70
    1
 43
0
 10
-9.575031212673219
 20
95.9092411559338
 10
-10.52608772896837
 20
95.60022416155886
 10
-10.55698942840587
 20
95.69532981318837
 10
-9.605932912110715
 20
96.00434680756331
  0
LWPOLYLINE
  5
B2
100
AcDbEntity
  8
0
  6
ByLayer
 62
    0
370
   -1
100
AcDbPolyline
 90
    4
 70
    1
 43
0
 10
-7.968142841923493
 20
90.96374727119901
 10
-8.919199358218647
 20
90.65473027682405
 10
-8.888297658781152
 20
90.55962462519453
 10
-7.937241142485997
 20
90.86864161956949
  0
LWPOLYLINE
  5
B3
100
AcDbEntity
  8
0
  6
ByLayer
 62
    0
370
   -1
100
AcDbPolyline
 90
    4
 70
    1
 43
0
 10
-5.875818506074154
 20
91.64358465882388
 10
-4.924761989779
 20
91.95260165319883
 10
-4.893860290341506
 20
91.85749600156932
 10
-5.844916806636659
 20
91.54847900719437
  0
LWPOLYLINE
  5
B4
100
AcDbEntity
  8
0
  6
ByLayer
 62
    0
370
   -1
100
AcDbPolyline
 90
    4
 70
    1
 43
0
 10
-19.6723455041675
 20
81.20262569064327
 10
-16.73341924270513
 20
85.247710662518
 10
-20.77850421457987
 20
88.18663692398037
 10
-23.71743047604224
 20
84.14155195210564
  0
LWPOLYLINE
  5
B5
100
AcDbEntity
  8
0
  6
ByLayer
 62
    0
370
   -1
100
AcDbPolyline
 90
    4
 70
    1
 43
0
 10
-21.68230526722683
 20
87.1127916570847
 10
-21.09452001493435
 20
87.92180865145964
 10
-21.17542171437185
 20
87.98058717668889
 10
-21.76320696666432
 20
87.17157018231394
  0
LWPOLYLINE
  5
B6
100
AcDbEntity
  8
0
  6
ByLayer
 62
    0
370
   -1
100
AcDbPolyline
 90
    4
 70
    1
 43
0
 10
-22.97543282227027
 20
85.33295426945982
 10
-23.56321807456274
 20
84.52393727508486
 10
-23.64411977400025
 20
84.58271580031411
 10
-23.05633452170777
 20
85.39173279468906
  0
LWPOLYLINE
  5
B7
100
AcDbEntity
  8
0
  6
ByLayer
 62
    0
370
   -1
100
AcDbPolyline
 90
    4
 70
    1
 43
0
 10
-18.76854445152055
 20
82.27647095753895
 10
-19.35632970381302
 20
81.467453963164
 10
-19.27542800437552
 20
81.40867543793476
 10
-18.68764275208305
 20
82.2176924323097
  0
LWPOLYLINE
  5
B8
100
AcDbEntity
  8
0
  6
ByLayer
 62
    0
370
   -1
100
AcDbPolyline
 90
    4
 70
    1
 43
0
 10
-17.4754168964771
 20
84.05630834516383
 10
-16.88763164418463
 20
84.8653253395388
 10
-16.80672994474713
 20
84.80654681430954
 10
-17.39451519703961
 20
83.99752981993458
  0
LWPOLYLINE
  5
B9
100
AcDbEntity
  8
0
  6
ByLayer
 62
    0
370
   -1
100
AcDbPolyline
 90
    4
 70
    1
 43
0
 10
-22.5
 20
67.5
 10
-22.5
 20
72.5
 10
-27.5
 20
72.5
 10
-27.5
 20
67.5
  0
LWPOLYLINE
  5
BA
100
AcDbEntity
  8
0
  6
ByLayer
 62
    0
370
   -1
100
AcDbPolyline
 90
    4
 70
    1
 43
0
 10
-27.6
 20
71.09999999999999
 10
-27.6
 20
72.09999999999999
 10
-27.7
 20
72.09999999999999
 10
-27.7
 20
71.09999999999999
  0
LWPOLYLINE
  5
BB
100
AcDbEntity
  8
0
  6
ByLayer
 62
    0
370
   -1
100
AcDbPolyline
 90
    4
 70
    1
 43
0
 10
-27.6
 20
68.90000000000001
 10
-27.6
 20
67.90000000000001
 10
-27.7
 20
67.90000000000001
 10
-27.7
 20
68.90000000000001
  0
LWPOLYLINE
  5
BC
100
AcDbEntity
  8
0
  6
ByLayer
 62
    0
370
   -1
100
AcDbPolyline
 90
    4
 70
    1
 43
0
 10
-22.4
 20
68.90000000000001
 10
-22.4
 20
67.90000000000001
 10
-22.3
 20
67.90000000000001
 10
-22.3
 20
68.90000000000001
  0
LWPOLYLINE
  5
BD
100
AcDbEntity
  8
0
  6
ByLayer
 62
    0
370
   -1
100
AcDbPolyline
 90
    4
 70
    1
 43
0
 10
-22.4
 20
71.09999999999999
 10
-22.4
 20
72.09999999999999
 10
-22.3
 20
72.09999999999999
 10
-22.3
 20
71.09999999999999
  0
LWPOLYLINE
  5
BE
100
AcDbEntity
  8
0
  6
ByLayer
 62
    0
370
   -1
100
AcDbPolyline
 90
    4
 70
    1
 43
0
 10
-16.73341924270513
 20
54.75228933748199
 10
-19.6723455041675
 20
58.79737430935673
 10
-23.71743047604224
 20
55.85844804789436
 10
-20.77850421457987
 20
51.81336307601963
  0
LWPOLYLINE
  5
BF
100
AcDbEntity
  8
0
  6
ByLayer
 62
    0
370
   -1
100
AcDbPolyline
 90
    4
 70
    1
 43
0
 10
-22.97543282227027
 20
54.66704573054019
 10
-23.56321807456274
 20
55.47606272491514
 10
-23.64411977400024
 20
55.41728419968589
 10
-23.05633452170776
 20
54.60826720531094
  0
LWPOLYLINE
  5
C0
100
AcDbEntity
  8
0
  6
ByLayer
 62
    0
370
   -1
100
AcDbPolyline
 90
    4
 70
    1
 43
0
 10
-21.68230526722683
 20
52.8872083429153
 10
-21.09452001493435
 20
52.07819134854036
 10
-21.17542171437185
 20
52.01941282331111
 10
-21.76320696666432
 20
52.82842981768606
  0
LWPOLYLINE
  5
C1
100
AcDbEntity
  8
0
  6
ByLayer
 62
    0
370
   -1
100
AcDbPolyline
 90
    4
 70
    1
 43
0
 10
-17.4754168964771
 20
55.94369165483617
 10
-16.88763164418463
 20
55.13467466046122
 10
-16.80672994474713
 20
55.19345318569047
 10
-17.39451519703961
 20
56.00247018006541
  0
LWPOLYLINE
  5
C2
100
AcDbEntity
  8
0
  6
ByLayer
 62
    0
370
   -1
100
AcDbPolyline
 90
    4
 70
    1
 43
0
 10
-18.76854445152054
 20
57.72352904246105
 10
-19.35632970381301
 20
58.532546036836
 10
-19.27542800437552
 20
58.59132456206525
 10
-18.68764275208304
 20
57.7823075676903
  0
LWPOLYLINE
  5
C3
100
AcDbEntity
  8
0
  6
ByLayer
 62
    0
370
   -1
100
AcDbPolyline
 90
    4
 70
    1
 43
0
 10
-4.575241082698434
 20
47.82868589742167
 10
-9.330523664174201
 20
49.37377086929641
 10
-10.87560863604894
 20
44.61848828782065
 10
-6.120326054573171
 20
43.07340331594591
  0
LWPOLYLINE
  5
C4
100
AcDbEntity
  8
0
  6
ByLayer
 62
    0
370
   -1
100
AcDbPolyline
 90
    4
 70
    1
 43
0
 10
-9.575031212673217
 20
44.09075884406621
 10
-10.52608772896837
 20
44.39977583844115
 10
-10.55698942840587
 20
44.30467018681163
 10
-9.605932912110713
 20
43.99565319243668
  0
LWPOLYLINE
  5
C5
100
AcDbEntity
  8
0
  6
ByLayer
 62
    0
370
   -1
100
AcDbPolyline
 90
    4
 70
    1
 43
0
 10
-7.482706876823881
 20
43.41092145644132
 10
-6.531650360528726
 20
43.10190446206637
 10
-6.56255205996622
 20
43.00679881043686
 10
-7.513608576261377
 20
43.31581580481181
  0
LWPOLYLINE
  5
C6
100
AcDbEntity
  8
0
  6
ByLayer
 62
    0
370
   -1
100
AcDbPolyline
 90
    4
 70
    1
 43
0
 10
-5.875818506074154
 20
48.35641534117612
 10
-4.924761989779
 20
48.04739834680117
 10
-4.893860290341506
 20
48.14250399843068
 10
-5.844916806636659
 20
48.45152099280563
  0
LWPOLYLINE
  5
C7
100
AcDbEntity
  8
0
  6
ByLayer
 62
    0
370
   -1
100
AcDbPolyline
 90
    4
 70
    1
 43
0
 10
-7.968142841923491
 20
49.036252728801
 10
-8.919199358218645
 20
49.34526972317595
 10
-8.888297658781148
 20
49.44037537480546
 10
-7.937241142485997
 20
49.13135838043051
  0
LWPOLYLINE
  5
C8
100
AcDbEntity
  8
0
  6
ByLayer
 62
    0
370
   -1
100
AcDbPolyline
 90
    4
 70
    1
 43
0
 10
9.330523664174198
 20
49.37377086929641
 10
4.57524108269843
 20
47.82868589742168
 10
6.120326054573164
 20
43.07340331594591
 10
10.87560863604893
 20
44.61848828782064
  0
LWPOLYLINE
  5
C9
100
AcDbEntity
  8
0
  6
ByLayer
 62
    0
370
   -1
100
AcDbPolyline
 90
    4
 70
    1
 43
0
 10
7.482706876823872
 20
43.41092145644132
 10
6.531650360528721
 20
43.10190446206637
 10
6.562552059966215
 20
43.00679881043686
 10
7.513608576261369
 20
43.31581580481181
  0
LWPOLYLINE
  5
CA
100
AcDbEntity
  8
0
  6
ByLayer
 62
    0
370
   -1
100
AcDbPolyline
 90
    4
 70
    1
 43
0
 10
9.575031212673213
 20
44.0907588440662
 10
10.52608772896836
 20
44.39977583844116
 10
10.55698942840586
 20
44.30467018681163
 10
9.605932912110706
 20
43.99565319243669
  0
LWPOLYLINE
  5
CB
100
AcDbEntity
  8
0
  6
ByLayer
 62
    0
370
   -1
100
AcDbPolyline
 90
    4
 70
    1
 43
0
 10
7.968142841923491
 20
49.036252728801
 10
8.919199358218641
 20
49.34526972317595
 10
8.888297658781147
 20
49.44037537480546
 10
7.937241142485993
 20
49.13135838043051
  0
LWPOLYLINE
  5
CC
100
AcDbEntity
  8
0
  6
ByLayer
 62
    0
370
   -1
100
AcDbPolyline
 90
    4
 70
    1
 43
0
 10
5.875818506074149
 20
48.35641534117612
 10
4.924761989778998
 20
48.04739834680117
 10
4.8938602903415
 20
48.14250399843069
 10
5.844916806636654
 20
48.45152099280564
  0
LWPOLYLINE
  5
CD
100
AcDbEntity
  8
0
  6
ByLayer
 62
    0
370
   -1
100
AcDbPolyline
 90
    4
 70
    1
 43
0
 10
19.6723455041675
 20
58.79737430935671
 10
16.73341924270513
 20
54.75228933748198
 10
20.77850421457986
 20
51.81336307601961
 10
23.71743047604223
 20
55.85844804789435
  0
LWPOLYLINE
  5
CE
100
AcDbEntity
  8
0
  6
ByLayer
 62
    0
370
   -1
100
AcDbPolyline
 90
    4
 70
    1
 43
0
 10
21.68230526722682
 20
52.88720834291529
 10
21.09452001493435
 20
52.07819134854034
 10
21.17542171437184
 20
52.01941282331109
 10
21.76320696666432
 20
52.82842981768604
  0
LWPOLYLINE
  5
CF
100
AcDbEntity
  8
0
  6
ByLayer
 62
    0
370
   -1
100
AcDbPolyline
 90
    4
 70
    1
 43
0
 10
22.97543282227026
 20
54.66704573054017
 10
23.56321807456274
 20
55.47606272491512
 10
23.64411977400023
 20
55.41728419968587
 10
23.05633452170776
 20
54.60826720531092
  0
LWPOLYLINE
  5
D0
100
AcDbEntity
  8
0
  6
ByLayer
 62
    0
370
   -1
100
AcDbPolyline
 90
    4
 70
    1
 43
0
 10
18.76854445152054
 20
57.72352904246104
 10
19.35632970381301
 20
58.53254603683598
 10
19.27542800437552
 20
58.59132456206523
 10
18.68764275208304
 20
57.78230756769028
  0
LWPOLYLINE
  5
D1
100
AcDbEntity
  8
0
  6
ByLayer
 62
    0
370
   -1
100
AcDbPolyline
 90
    4
 70
    1
 43
0
 10
17.4754168964771
 20
55.94369165483615
 10
16.88763164418463
 20
55.1346746604612
 10
16.80672994474713
 20
55.19345318569045
 10
17.3945151970396
 20
56.0024701800654
  0
LWPOLYLINE
  5
D2
100
AcDbEntity
  8
0
  6
ByLayer
 62
    0
370
   -1
100
AcDbPolyline
 90
    4
 70
    1
 43
0
 10
-2.5
 20
87.5
 10
-2.5
 20
82.5
 10
2.5
 20
82.5
 10
2.5
 20
87.5
  0
LWPOLYLINE
  5
D3
100
AcDbEntity
  8
0
  6
ByLayer
 62
    0
370
   -1
100
AcDbPolyline
 90
    4
 70
    1
 43
0
 10
2.6
 20
83.90000000000001
 10
2.6
 20
82.90000000000001
 10
2.7
 20
82.90000000000001
 10
2.7
 20
83.90000000000001
  0
LWPOLYLINE
  5
D4
100
AcDbEntity
  8
0
  6
ByLayer
 62
    0
370
   -1
100
AcDbPolyline
 90
    4
 70
    1
 43
0
 10
2.6
 20
86.09999999999999
 10
2.600000000000001
 20
87.09999999999999
 10
2.7
 20
87.09999999999999
 10
2.7
 20
86.09999999999999
  0
LWPOLYLINE
  5
D5
100
AcDbEntity
  8
0
  6
ByLayer
 62
    0
370
   -1
100
AcDbPolyline
 90
    4
 70
    1
 43
0
 10
-2.6
 20
86.09999999999999
 10
-2.6
 20
87.09999999999999
 10
-2.7
 20
87.09999999999999
 10
-2.7
 20
86.09999999999999
  0
LWPOLYLINE
  5
D6
100
AcDbEntity
  8
0
  6
ByLayer
 62
    0
370
   -1
100
AcDbPolyline
 90
    4
 70
    1
 43
0
 10
-2.6
 20
83.90000000000001
 10
-2.600000000000001
 20
82.90000000000001
 10
-2.700000000000001
 20
82.90000000000001
 10
-2.7
 20
83.90000000000001
  0
LWPOLYLINE
  5
D7
100
AcDbEntity
  8
0
  6
ByLayer
 62
    0
370
   -1
100
AcDbPolyline
 90
    4
 70
    1
 43
0
 10
-17.41603152110255
 20
73.0301561108237
 10
-12.66074893962679
 20
71.48507113894897
 10
-11.11566396775205
 20
76.24035372042474
 10
-15.87094654922782
 20
77.78543869229946
  0
LWPOLYLINE
  5
D8
100
AcDbEntity
  8
0
  6
ByLayer
 62
    0
370
   -1
100
AcDbPolyline
 90
    4
 70
    1
 43
0
 10
-12.41624139112777
 20
76.76808316417916
 10
-11.46518487483262
 20
76.45906616980423
 10
-11.43428317539512
 20
76.55417182143374
 10
-12.38533969169027
 20
76.86318881580868
  0
LWPOLYLINE
  5
D9
100
AcDbEntity
  8
0
  6
ByLayer
 62
    0
370
   -1
100
AcDbPolyline
 90
    4
 70
    1
 43
0
 10
-14.50856572697711
 20
77.44792055180406
 10
-15.45962224327226
 20
77.75693754617902
 10
-15.42872054383477
 20
77.85204319780853
 10
-14.47766402753961
 20
77.54302620343357
  0
LWPOLYLINE
  5
DA
100
AcDbEntity
  8
0
  6
ByLayer
 62
    0
370
   -1
100
AcDbPolyline
 90
    4
 70
    1
 43
0
 10
-16.11545409772684
 20
72.50242666706927
 10
-17.06651061402199
 20
72.8114436614442
 10
-17.09741231345948
 20
72.71633800981469
 10
-16.14635579716433
 20
72.40732101543975
  0
LWPOLYLINE
  5
DB
100
AcDbEntity
  8
0
  6
ByLayer
 62
    0
370
   -1
100
AcDbPolyline
 90
    4
 70
    1
 43
0
 10
-14.0231297618775
 20
71.82258927944437
 10
-13.07207324558234
 20
71.51357228506943
 10
-13.10297494501984
 20
71.41846663343991
 10
-14.05403146131499
 20
71.72748362781486
  0
LWPOLYLINE
  5
DC
100
AcDbEntity
  8
0
  6
ByLayer
 62
    0
370
   -1
100
AcDbPolyline
 90
    4
 70
    1
 43
0
 10
-8.263699429180914
 20
54.37273946770723
 10
-5.324773167718547
 20
58.41782443958197
 10
-9.369858139593283
 20
61.35675070104433
 10
-12.30878440105565
 20
57.3116657291696
  0
LWPOLYLINE
  5
DD
100
AcDbEntity
  8
0
  6
ByLayer
 62
    0
370
   -1
100
AcDbPolyline
 90
    4
 70
    1
 43
0
 10
-10.27365919224024
 20
60.28290543414866
 10
-9.685873939947768
 20
61.0919224285236
 10
-9.766775639385262
 20
61.15070095375285
 10
-10.35456089167774
 20
60.3416839593779
  0
LWPOLYLINE
  5
DE
100
AcDbEntity
  8
0
  6
ByLayer
 62
    0
370
   -1
100
AcDbPolyline
 90
    4
 70
    1
 43
0
 10
-11.56678674728368
 20
58.50306804652377
 10
-12.15457199957616
 20
57.69405105214882
 10
-12.23547369901365
 20
57.75282957737807
 10
-11.64768844672118
 20
58.56184657175302
  0
LWPOLYLINE
  5
DF
100
AcDbEntity
  8
0
  6
ByLayer
 62
    0
370
   -1
100
AcDbPolyline
 90
    4
 70
    1
 43
0
 10
-7.359898376533957
 20
55.44658473460291
 10
-7.94768362882643
 20
54.63756774022796
 10
-7.866781929388935
 20
54.57878921499871
 10
-7.278996677096462
 20
55.38780620937366
  0
LWPOLYLINE
  5
E0
100
AcDbEntity
  8
0
  6
ByLayer
 62
    0
370
   -1
100
AcDbPolyline
 90
    4
 70
    1
 43
0
 10
-6.066770821490515
 20
57.2264221222278
 10
-5.478985569198043
 20
58.03543911660275
 10
-5.398083869760542
 20
57.97666059137349
 10
-5.985869122053018
 20
57.16764359699854
  0
LWPOLYLINE
  5
E1
100
AcDbEntity
  8
0
  6
ByLayer
 62
    0
370
   -1
100
AcDbPolyline
 90
    4
 70
    1
 43
0
 10
12.30878440105565
 20
57.3116657291696
 10
9.369858139593282
 20
61.35675070104433
 10
5.324773167718543
 20
58.41782443958197
 10
8.263699429180908
 20
54.37273946770723
  0
LWPOLYLINE
  5
E2
100
AcDbEntity
  8
0
  6
ByLayer
 62
    0
370
   -1
100
AcDbPolyline
 90
    4
 70
    1
 43
0
 10
6.066770821490509
 20
57.22642212222779
 10
5.478985569198038
 20
58.03543911660275
 10
5.398083869760543
 20
57.97666059137349
 10
5.985869122053016
 20
57.16764359699855
  0
LWPOLYLINE
  5
E3
100
AcDbEntity
  8
0
  6
ByLayer
 62
    0
370
   -1
100
AcDbPolyline
 90
    4
 70
    1
 43
0
 10
7.359898376533952
 20
55.44658473460291
 10
7.947683628826426
 20
54.63756774022796
 10
7.86678192938893
 20
54.57878921499871
 10
7.278996677096458
 20
55.38780620937366
  0
LWPOLYLINE
  5
E4
100
AcDbEntity
  8
0
  6
ByLayer
 62
    0
370
   -1
100
AcDbPolyline
 90
    4
 70
    1
 43
0
 10
11.56678674728368
 20
58.50306804652377
 10
12.15457199957615
 20
57.69405105214882
 10
12.23547369901365
 20
57.75282957737807
 10
11.64768844672117
 20
58.56184657175302
  0
LWPOLYLINE
  5
E5
100
AcDbEntity
  8
0
  6
ByLayer
 62
    0
370
   -1
100
AcDbPolyline
 90
    4
 70
    1
 43
0
 10
10.27365919224024
 20
60.28290543414866
 10
9.685873939947768
 20
61.0919224285236
 10
9.76677563938526
 20
61.15070095375285
 10
10.35456089167773
 20
60.3416839593779
  0
LWPOLYLINE
  5
E6
100
AcDbEntity
  8
0
  6
ByLayer
 62
    0
370
   -1
100
AcDbPolyline
 90
    4
 70
    1
 43
0
 10
15.87094654922782
 20
77.78543869229945
 10
11.11566396775205
 20
76.24035372042472
 10
12.66074893962679
 20
71.48507113894895
 10
17.41603152110256
 20
73.03015611082368
  0
LWPOLYLINE
  5
E7
100
AcDbEntity
  8
0
  6
ByLayer
 62
    0
370
   -1
100
AcDbPolyline
 90
    4
 70
    1
 43
0
 10
14.0231297618775
 20
71.82258927944437
 10
13.07207324558235
 20
71.51357228506942
 10
13.10297494501984
 20
71.41846663343989
 10
14.05403146131499
 20
71.72748362781485
  0
LWPOLYLINE
  5
E8
100
AcDbEntity
  8
0
  6
ByLayer
 62
    0
370
   -1
100
AcDbPolyline
 90
    4
 70
    1
 43
0
 10
16.11545409772684
 20
72.50242666706924
 10
17.06651061402199
 20
72.8114436614442
 10
17.09741231345949
 20
72.71633800981468
 10
16.14635579716433
 20
72.40732101543973
  0
LWPOLYLINE
  5
E9
100
AcDbEntity
  8
0
  6
ByLayer
 62
    0
370
   -1
100
AcDbPolyline
 90
    4
 70
    1
 43
0
 10
14.50856572697711
 20
77.44792055180405
 10
15.45962224327226
 20
77.75693754617899
 10
15.42872054383477
 20
77.85204319780851
 10
14.47766402753962
 20
77.54302620343356
  0
LWPOLYLINE
  5
EA
100
AcDbEntity
  8
0
  6
ByLayer
 62
    0
370
   -1
100
AcDbPolyline
 90
    4
 70
    1
 43
0
 10
12.41624139112777
 20
76.76808316417916
 10
11.46518487483262
 20
76.45906616980422
 10
11.43428317539513
 20
76.55417182143373
 10
12.38533969169028
 20
76.86318881580868
  0
LWPOLYLINE
  5
EB
100
AcDbEntity
  8
0
  6
ByLayer
 62
    0
370
   -1
100
AcDbPolyline
 90
    4
 70
    1
 43
0
 10
-2.5
 20
72.5
 10
-2.5
 20
67.5
 10
2.5
 20
67.5
 10
2.5
 20
72.5
  0
LWPOLYLINE
  5
EC
100
AcDbEntity
  8
0
  6
ByLayer
 62
    0
370
   -1
100
AcDbPolyline
 90
    4
 70
    1
 43
0
 10
2.6
 20
68.90000000000001
 10
2.6
 20
67.90000000000001
 10
2.7
 20
67.90000000000001
 10
2.7
 20
68.90000000000001
  0
LWPOLYLINE
  5
ED
100
AcDbEntity
  8
0
  6
ByLayer
 62
    0
370
   -1
100
AcDbPolyline
 90
    4
 70
    1
 43
0
 10
2.6
 20
71.09999999999999
 10
2.600000000000001
 20
72.09999999999999
 10
2.7
 20
72.09999999999999
 10
2.7
 20
71.09999999999999
  0
LWPOLYLINE
  5
EE
100
AcDbEntity
  8
0
  6
ByLayer
 62
    0
370
   -1
100
AcDbPolyline
 90
    4
 70
    1
 43
0
 10
-2.6
 20
71.09999999999999
 10
-2.6
 20
72.09999999999999
 10
-2.7
 20
72.09999999999999
 10
-2.7
 20
71.09999999999999
  0
LWPOLYLINE
  5
EF
100
AcDbEntity
  8
0
  6
ByLayer
 62
    0
370
   -1
100
AcDbPolyline
 90
    4
 70
    1
 43
0
 10
-2.6
 20
68.90000000000001
 10
-2.600000000000001
 20
67.90000000000001
 10
-2.700000000000001
 20
67.90000000000001
 10
-2.7
 20
68.90000000000001
  0
ENDSEC
  0
SECTION
  2
OBJECTS
  0
DICTIONARY
  5
C
330
0
100
AcDbDictionary
281
    1
  3
ACAD_GROUP
350
D
  0
DICTIONARY
  5
D
330
C
100
AcDbDictionary
281
    1
  0
ENDSEC
  0
EOF
