<?xml version="1.0" encoding="UTF-8" standalone="no"?>
<!-- Created with Inkscape (http://www.inkscape.org/) -->

<svg
   xmlns:dc="http://purl.org/dc/elements/1.1/"
   xmlns:cc="http://creativecommons.org/ns#"
   xmlns:rdf="http://www.w3.org/1999/02/22-rdf-syntax-ns#"
   xmlns:svg="http://www.w3.org/2000/svg"
   xmlns="http://www.w3.org/2000/svg"
   xmlns:sodipodi="http://sodipodi.sourceforge.net/DTD/sodipodi-0.dtd"
   xmlns:inkscape="http://www.inkscape.org/namespaces/inkscape"
   width="5.7410989mm"
   height="5.2024736mm"
   viewBox="0 0 5.7410989 5.2024737"
   version="1.1"
   id="svg8"
   inkscape:version="0.92.5 (2060ec1f9f, 2020-04-08)"
   sodipodi:docname="drawing.svg">
  <defs
     id="defs2" />
  <sodipodi:namedview
     id="base"
     pagecolor="#ffffff"
     bordercolor="#666666"
     borderopacity="1.0"
     inkscape:pageopacity="0.0"
     inkscape:pageshadow="2"
     inkscape:zoom="11.2"
     inkscape:cx="-1.9149281"
     inkscape:cy="2.5075916"
     inkscape:document-units="mm"
     inkscape:current-layer="layer1"
     showgrid="false"
     fit-margin-top="0"
     fit-margin-left="0"
     fit-margin-right="0"
     fit-margin-bottom="0"
     inkscape:window-width="1920"
     inkscape:window-height="1135"
     inkscape:window-x="1920"
     inkscape:window-y="480"
     inkscape:window-maximized="1" />
  <metadata
     id="metadata5">
    <rdf:RDF>
      <cc:Work
         rdf:about="">
        <dc:format>image/svg+xml</dc:format>
        <dc:type
           rdf:resource="http://purl.org/dc/dcmitype/StillImage" />
        <dc:title></dc:title>
      </cc:Work>
    </rdf:RDF>
  </metadata>
  <g
     inkscape:label="Layer 1"
     inkscape:groupmode="layer"
     id="layer1"
     transform="translate(-68.84836,-127.32118)">
    <path
       style="fill:none;stroke:#000000;stroke-width:0.03175009px;stroke-linecap:butt;stroke-linejoin:miter;stroke-opacity:1"
       d="m 72.070428,129.36396 c 0,0 0.09345,-0.10557 0.126994,-0.16367 0.03354,-0.0581 0.06582,-0.12084 0.07426,-0.18491 0.0094,-0.0711 -0.01338,-0.14994 -0.0557,-0.20786 -0.03353,-0.0459 -0.09375,-0.0772 -0.143511,-0.0921 -0.07408,-0.0223 -0.148059,-0.018 -0.22316,0 -0.0825,0.0197 -0.157753,0.0778 -0.226912,0.12937 -0.09493,0.0707 -0.178363,0.16384 -0.255282,0.25812 -0.06707,0.0822 -0.131715,0.18373 -0.175297,0.27984 -0.04301,0.0948 -0.07003,0.20115 -0.08361,0.30429 -0.01222,0.0928 -0.01553,0.19467 0.0028,0.28644 0.01936,0.0967 0.06857,0.19197 0.130901,0.27319 0.06233,0.0812 0.16222,0.16145 0.259216,0.20819 0.097,0.0468 0.218127,0.0434 0.325471,0.0369 0.09123,-0.006 0.182637,-0.0413 0.269308,-0.0703 0.07592,-0.0254 0.141117,-0.0761 0.207991,-0.12008 0.06953,-0.0458 0.134224,-0.0985 0.200225,-0.14923 0.0736,-0.0566 0.218282,-0.17292 0.218282,-0.17292 v 0.42806 c 0,0 -0.129405,0.0952 -0.198438,0.13607 -0.104757,0.062 -0.213346,0.11837 -0.326006,0.16442 -0.08631,0.0353 -0.174245,0.0714 -0.266474,0.085 -0.130872,0.0194 -0.396876,-0.006 -0.396876,-0.006 0,0 -0.189826,-0.0364 -0.274978,-0.0794 -0.09143,-0.0462 -0.175909,-0.11038 -0.243796,-0.18709 -0.06906,-0.078 -0.121216,-0.1721 -0.15875,-0.26931 -0.03858,-0.0999 -0.05663,-0.2079 -0.0652,-0.31467 -0.01029,-0.12822 -0.0038,-0.25859 0.01701,-0.38554 0.01986,-0.1213 0.04981,-0.24309 0.102053,-0.35435 0.05782,-0.12313 0.139197,-0.23573 0.229622,-0.33734 0.08728,-0.0981 0.190305,-0.18238 0.297657,-0.25797 0.07715,-0.0543 0.159369,-0.10302 0.24663,-0.13891 0.06615,-0.0272 0.135662,-0.0508 0.206943,-0.0567 0.09183,-0.008 0.187378,-2.4e-4 0.274978,0.0284 0.07488,0.0244 0.146934,0.0649 0.204108,0.11906 0.0624,0.0591 0.105956,0.13729 0.141741,0.21545 0.03599,0.0786 0.04067,0.1604 0.04678,0.24663 0.0059,0.0837 -0.0064,0.1439 -0.0326,0.22395 -0.02912,0.0889 -0.07413,0.16327 -0.124733,0.2438 -0.01358,0.0216 -0.05386,0.0794 -0.05386,0.0794 z"
       id="path23"
       inkscape:connector-curvature="0"
       sodipodi:nodetypes="czssssssssszzssssccssscsssssssssssssssscc" />
    <text
       xml:space="preserve"
       style="font-style:normal;font-variant:normal;font-weight:normal;font-stretch:normal;font-size:10.58333302px;line-height:1.25;font-family:times;-inkscape-font-specification:times;letter-spacing:0px;word-spacing:0px;fill:#000000;fill-opacity:1;stroke:none;stroke-width:0.26458332"
       x="81.264877"
       y="124.64285"
       id="text3730"><tspan
         sodipodi:role="line"
         id="tspan3728"
         x="81.264877"
         y="133.19418"
         style="font-style:normal;font-variant:normal;font-weight:normal;font-stretch:normal;font-family:times;-inkscape-font-specification:times;stroke-width:0.26458332" /></text>
    <g
       aria-label="777"
       style="font-style:normal;font-variant:normal;font-weight:normal;font-stretch:normal;font-size:10.58333302px;line-height:1.25;font-family:arial;-inkscape-font-specification:arial;letter-spacing:0px;word-spacing:0px;fill:none;fill-opacity:1;stroke:#000000;stroke-width:0.26458332"
       id="text3734"
       transform="matrix(0.12000037,0,0,0.12000037,60.586532,116.62077)">
      <path
         d="m 86.995946,121.9486 q -1.785937,2.72852 -2.521809,4.27467 -0.735873,1.54616 -1.107943,3.05098 -0.363802,1.50482 -0.363802,3.11712 h -1.554427 q 0,-2.23242 0.942578,-4.69635 0.950846,-2.4722 3.166732,-5.68854 h -6.25905 v -1.26504 h 7.697721 z"
         style="font-style:normal;font-variant:normal;font-weight:normal;font-stretch:normal;font-size:16.93333244px;font-family:arial;-inkscape-font-specification:arial;fill:none;stroke:#000000;stroke-width:0.26458332"
         id="path3739"
         inkscape:connector-curvature="0" />
      <path
         d="m 96.413459,121.9486 q -1.785937,2.72852 -2.52181,4.27467 -0.735872,1.54616 -1.107942,3.05098 -0.363802,1.50482 -0.363802,3.11712 h -1.554427 q 0,-2.23242 0.942578,-4.69635 0.950846,-2.4722 3.166731,-5.68854 h -6.259049 v -1.26504 h 7.697721 z"
         style="font-style:normal;font-variant:normal;font-weight:normal;font-stretch:normal;font-size:16.93333244px;font-family:arial;-inkscape-font-specification:arial;fill:none;stroke:#000000;stroke-width:0.26458332"
         id="path3741"
         inkscape:connector-curvature="0" />
      <path
         d="m 105.83097,121.9486 q -1.78594,2.72852 -2.52181,4.27467 -0.73587,1.54616 -1.10794,3.05098 -0.3638,1.50482 -0.3638,3.11712 h -1.55443 q 0,-2.23242 0.94258,-4.69635 0.95084,-2.4722 3.16673,-5.68854 h -6.259049 v -1.26504 h 7.697719 z"
         style="font-style:normal;font-variant:normal;font-weight:normal;font-stretch:normal;font-size:16.93333244px;font-family:arial;-inkscape-font-specification:arial;fill:none;stroke:#000000;stroke-width:0.26458332"
         id="path3743"
         inkscape:connector-curvature="0" />
    </g>
    <path
       style="fill:none;stroke:#000000;stroke-width:0.03175009"
       d="m 68.864235,127.33706 h 5.709349 v 0.24946 h -5.709349 z"
       id="rect3736"
       inkscape:connector-curvature="0" />
  </g>
</svg>
