M48
; DRILL file {KiCad 5.1.5+dfsg1-2build2} date Wed Dec 16 22:24:56 2020
; FORMAT={-:-/ absolute / inch / decimal}
; #@! TF.CreationDate,2020-12-16T22:24:56+01:00
; #@! TF.GenerationSoftware,Kicad,Pcbnew,5.1.5+dfsg1-2build2
; #@! TF.FileFunction,Plated,1,2,PTH
FMAT,2
INCH
T1C0.0157
%
G90
G05
T1
X2.265Y-3.365
X2.561Y-3.126
X2.72Y-2.95
X2.958Y-3.125
X3.087Y-2.972
X3.09Y-3.501
X3.344Y-3.132
X3.482Y-2.965
X3.484Y-3.505
X3.739Y-3.125
X3.876Y-2.959
X3.882Y-3.5
X4.0Y-3.35
X4.0Y-3.4
X4.05Y-3.35
X4.05Y-3.4
X4.133Y-3.125
X4.145Y-3.6175
X4.264Y-2.964
X4.48Y-3.39
X4.48Y-3.43
X4.48Y-3.47
X4.48Y-3.51
X4.48Y-3.55
X4.522Y-3.126
X4.661Y-2.956
X4.663Y-3.503
X4.921Y-3.124
X5.056Y-2.964
X5.059Y-3.501
X5.303Y-3.129
X5.453Y-3.505
X5.454Y-2.969
X5.704Y-3.128
X5.843Y-3.505
X5.847Y-2.964
X6.096Y-3.127
X6.236Y-2.963
X6.242Y-3.503
X6.556Y-3.318
T0
M30
