G04 #@! TF.GenerationSoftware,KiCad,Pcbnew,5.1.5+dfsg1-2build2*
G04 #@! TF.CreationDate,2020-12-16T22:25:05+01:00*
G04 #@! TF.ProjectId,LEDPCB,4c454450-4342-42e6-9b69-6361645f7063,rev?*
G04 #@! TF.SameCoordinates,Original*
G04 #@! TF.FileFunction,Other,Fab,Bot*
%FSLAX46Y46*%
G04 Gerber Fmt 4.6, Leading zero omitted, Abs format (unit mm)*
G04 Created by KiCad (PCBNEW 5.1.5+dfsg1-2build2) date 2020-12-16 22:25:05*
%MOMM*%
%LPD*%
G04 APERTURE LIST*
%ADD10C,0.100000*%
%ADD11C,0.150000*%
%ADD12C,0.300000*%
%ADD13C,0.400000*%
%ADD14C,0.120000*%
%ADD15C,0.060000*%
G04 APERTURE END LIST*
D10*
D11*
X177002200Y-166007200D02*
X177002200Y-198007200D01*
X285002200Y-198007200D01*
X285002200Y-166007200D01*
X177002200Y-166007200D01*
D10*
D11*
X10000000Y-10000000D02*
X10000000Y-200007200D01*
X287002200Y-200007200D01*
X287002200Y-10000000D01*
X10000000Y-10000000D01*
D10*
D11*
X12000000Y-12000000D02*
X12000000Y-198007200D01*
X285002200Y-198007200D01*
X285002200Y-12000000D01*
X12000000Y-12000000D01*
D10*
D11*
X60000000Y-12000000D02*
X60000000Y-10000000D01*
D10*
D11*
X110000000Y-12000000D02*
X110000000Y-10000000D01*
D10*
D11*
X160000000Y-12000000D02*
X160000000Y-10000000D01*
D10*
D11*
X210000000Y-12000000D02*
X210000000Y-10000000D01*
D10*
D11*
X260000000Y-12000000D02*
X260000000Y-10000000D01*
D10*
D11*
X36065476Y-11588095D02*
X35322619Y-11588095D01*
X35694047Y-11588095D02*
X35694047Y-10288095D01*
X35570238Y-10473809D01*
X35446428Y-10597619D01*
X35322619Y-10659523D01*
D10*
D11*
X85322619Y-10411904D02*
X85384523Y-10350000D01*
X85508333Y-10288095D01*
X85817857Y-10288095D01*
X85941666Y-10350000D01*
X86003571Y-10411904D01*
X86065476Y-10535714D01*
X86065476Y-10659523D01*
X86003571Y-10845238D01*
X85260714Y-11588095D01*
X86065476Y-11588095D01*
D10*
D11*
X135260714Y-10288095D02*
X136065476Y-10288095D01*
X135632142Y-10783333D01*
X135817857Y-10783333D01*
X135941666Y-10845238D01*
X136003571Y-10907142D01*
X136065476Y-11030952D01*
X136065476Y-11340476D01*
X136003571Y-11464285D01*
X135941666Y-11526190D01*
X135817857Y-11588095D01*
X135446428Y-11588095D01*
X135322619Y-11526190D01*
X135260714Y-11464285D01*
D10*
D11*
X185941666Y-10721428D02*
X185941666Y-11588095D01*
X185632142Y-10226190D02*
X185322619Y-11154761D01*
X186127380Y-11154761D01*
D10*
D11*
X236003571Y-10288095D02*
X235384523Y-10288095D01*
X235322619Y-10907142D01*
X235384523Y-10845238D01*
X235508333Y-10783333D01*
X235817857Y-10783333D01*
X235941666Y-10845238D01*
X236003571Y-10907142D01*
X236065476Y-11030952D01*
X236065476Y-11340476D01*
X236003571Y-11464285D01*
X235941666Y-11526190D01*
X235817857Y-11588095D01*
X235508333Y-11588095D01*
X235384523Y-11526190D01*
X235322619Y-11464285D01*
D10*
D11*
X285941666Y-10288095D02*
X285694047Y-10288095D01*
X285570238Y-10350000D01*
X285508333Y-10411904D01*
X285384523Y-10597619D01*
X285322619Y-10845238D01*
X285322619Y-11340476D01*
X285384523Y-11464285D01*
X285446428Y-11526190D01*
X285570238Y-11588095D01*
X285817857Y-11588095D01*
X285941666Y-11526190D01*
X286003571Y-11464285D01*
X286065476Y-11340476D01*
X286065476Y-11030952D01*
X286003571Y-10907142D01*
X285941666Y-10845238D01*
X285817857Y-10783333D01*
X285570238Y-10783333D01*
X285446428Y-10845238D01*
X285384523Y-10907142D01*
X285322619Y-11030952D01*
D10*
D11*
X60000000Y-198007200D02*
X60000000Y-200007200D01*
D10*
D11*
X110000000Y-198007200D02*
X110000000Y-200007200D01*
D10*
D11*
X160000000Y-198007200D02*
X160000000Y-200007200D01*
D10*
D11*
X210000000Y-198007200D02*
X210000000Y-200007200D01*
D10*
D11*
X260000000Y-198007200D02*
X260000000Y-200007200D01*
D10*
D11*
X36065476Y-199595295D02*
X35322619Y-199595295D01*
X35694047Y-199595295D02*
X35694047Y-198295295D01*
X35570238Y-198481009D01*
X35446428Y-198604819D01*
X35322619Y-198666723D01*
D10*
D11*
X85322619Y-198419104D02*
X85384523Y-198357200D01*
X85508333Y-198295295D01*
X85817857Y-198295295D01*
X85941666Y-198357200D01*
X86003571Y-198419104D01*
X86065476Y-198542914D01*
X86065476Y-198666723D01*
X86003571Y-198852438D01*
X85260714Y-199595295D01*
X86065476Y-199595295D01*
D10*
D11*
X135260714Y-198295295D02*
X136065476Y-198295295D01*
X135632142Y-198790533D01*
X135817857Y-198790533D01*
X135941666Y-198852438D01*
X136003571Y-198914342D01*
X136065476Y-199038152D01*
X136065476Y-199347676D01*
X136003571Y-199471485D01*
X135941666Y-199533390D01*
X135817857Y-199595295D01*
X135446428Y-199595295D01*
X135322619Y-199533390D01*
X135260714Y-199471485D01*
D10*
D11*
X185941666Y-198728628D02*
X185941666Y-199595295D01*
X185632142Y-198233390D02*
X185322619Y-199161961D01*
X186127380Y-199161961D01*
D10*
D11*
X236003571Y-198295295D02*
X235384523Y-198295295D01*
X235322619Y-198914342D01*
X235384523Y-198852438D01*
X235508333Y-198790533D01*
X235817857Y-198790533D01*
X235941666Y-198852438D01*
X236003571Y-198914342D01*
X236065476Y-199038152D01*
X236065476Y-199347676D01*
X236003571Y-199471485D01*
X235941666Y-199533390D01*
X235817857Y-199595295D01*
X235508333Y-199595295D01*
X235384523Y-199533390D01*
X235322619Y-199471485D01*
D10*
D11*
X285941666Y-198295295D02*
X285694047Y-198295295D01*
X285570238Y-198357200D01*
X285508333Y-198419104D01*
X285384523Y-198604819D01*
X285322619Y-198852438D01*
X285322619Y-199347676D01*
X285384523Y-199471485D01*
X285446428Y-199533390D01*
X285570238Y-199595295D01*
X285817857Y-199595295D01*
X285941666Y-199533390D01*
X286003571Y-199471485D01*
X286065476Y-199347676D01*
X286065476Y-199038152D01*
X286003571Y-198914342D01*
X285941666Y-198852438D01*
X285817857Y-198790533D01*
X285570238Y-198790533D01*
X285446428Y-198852438D01*
X285384523Y-198914342D01*
X285322619Y-199038152D01*
D10*
D11*
X10000000Y-60000000D02*
X12000000Y-60000000D01*
D10*
D11*
X10000000Y-110000000D02*
X12000000Y-110000000D01*
D10*
D11*
X10000000Y-160000000D02*
X12000000Y-160000000D01*
D10*
D11*
X10690476Y-35216666D02*
X11309523Y-35216666D01*
X10566666Y-35588095D02*
X11000000Y-34288095D01*
X11433333Y-35588095D01*
D10*
D11*
X11092857Y-84907142D02*
X11278571Y-84969047D01*
X11340476Y-85030952D01*
X11402380Y-85154761D01*
X11402380Y-85340476D01*
X11340476Y-85464285D01*
X11278571Y-85526190D01*
X11154761Y-85588095D01*
X10659523Y-85588095D01*
X10659523Y-84288095D01*
X11092857Y-84288095D01*
X11216666Y-84350000D01*
X11278571Y-84411904D01*
X11340476Y-84535714D01*
X11340476Y-84659523D01*
X11278571Y-84783333D01*
X11216666Y-84845238D01*
X11092857Y-84907142D01*
X10659523Y-84907142D01*
D10*
D11*
X11402380Y-135464285D02*
X11340476Y-135526190D01*
X11154761Y-135588095D01*
X11030952Y-135588095D01*
X10845238Y-135526190D01*
X10721428Y-135402380D01*
X10659523Y-135278571D01*
X10597619Y-135030952D01*
X10597619Y-134845238D01*
X10659523Y-134597619D01*
X10721428Y-134473809D01*
X10845238Y-134350000D01*
X11030952Y-134288095D01*
X11154761Y-134288095D01*
X11340476Y-134350000D01*
X11402380Y-134411904D01*
D10*
D11*
X10659523Y-185588095D02*
X10659523Y-184288095D01*
X10969047Y-184288095D01*
X11154761Y-184350000D01*
X11278571Y-184473809D01*
X11340476Y-184597619D01*
X11402380Y-184845238D01*
X11402380Y-185030952D01*
X11340476Y-185278571D01*
X11278571Y-185402380D01*
X11154761Y-185526190D01*
X10969047Y-185588095D01*
X10659523Y-185588095D01*
D10*
D11*
X287002200Y-60000000D02*
X285002200Y-60000000D01*
D10*
D11*
X287002200Y-110000000D02*
X285002200Y-110000000D01*
D10*
D11*
X287002200Y-160000000D02*
X285002200Y-160000000D01*
D10*
D11*
X285692676Y-35216666D02*
X286311723Y-35216666D01*
X285568866Y-35588095D02*
X286002200Y-34288095D01*
X286435533Y-35588095D01*
D10*
D11*
X286095057Y-84907142D02*
X286280771Y-84969047D01*
X286342676Y-85030952D01*
X286404580Y-85154761D01*
X286404580Y-85340476D01*
X286342676Y-85464285D01*
X286280771Y-85526190D01*
X286156961Y-85588095D01*
X285661723Y-85588095D01*
X285661723Y-84288095D01*
X286095057Y-84288095D01*
X286218866Y-84350000D01*
X286280771Y-84411904D01*
X286342676Y-84535714D01*
X286342676Y-84659523D01*
X286280771Y-84783333D01*
X286218866Y-84845238D01*
X286095057Y-84907142D01*
X285661723Y-84907142D01*
D10*
D11*
X286404580Y-135464285D02*
X286342676Y-135526190D01*
X286156961Y-135588095D01*
X286033152Y-135588095D01*
X285847438Y-135526190D01*
X285723628Y-135402380D01*
X285661723Y-135278571D01*
X285599819Y-135030952D01*
X285599819Y-134845238D01*
X285661723Y-134597619D01*
X285723628Y-134473809D01*
X285847438Y-134350000D01*
X286033152Y-134288095D01*
X286156961Y-134288095D01*
X286342676Y-134350000D01*
X286404580Y-134411904D01*
D10*
D11*
X285661723Y-185588095D02*
X285661723Y-184288095D01*
X285971247Y-184288095D01*
X286156961Y-184350000D01*
X286280771Y-184473809D01*
X286342676Y-184597619D01*
X286404580Y-184845238D01*
X286404580Y-185030952D01*
X286342676Y-185278571D01*
X286280771Y-185402380D01*
X286156961Y-185526190D01*
X285971247Y-185588095D01*
X285661723Y-185588095D01*
D10*
D11*
X200434342Y-193785771D02*
X200434342Y-192285771D01*
X200791485Y-192285771D01*
X201005771Y-192357200D01*
X201148628Y-192500057D01*
X201220057Y-192642914D01*
X201291485Y-192928628D01*
X201291485Y-193142914D01*
X201220057Y-193428628D01*
X201148628Y-193571485D01*
X201005771Y-193714342D01*
X200791485Y-193785771D01*
X200434342Y-193785771D01*
X202577200Y-193785771D02*
X202577200Y-193000057D01*
X202505771Y-192857200D01*
X202362914Y-192785771D01*
X202077200Y-192785771D01*
X201934342Y-192857200D01*
X202577200Y-193714342D02*
X202434342Y-193785771D01*
X202077200Y-193785771D01*
X201934342Y-193714342D01*
X201862914Y-193571485D01*
X201862914Y-193428628D01*
X201934342Y-193285771D01*
X202077200Y-193214342D01*
X202434342Y-193214342D01*
X202577200Y-193142914D01*
X203077200Y-192785771D02*
X203648628Y-192785771D01*
X203291485Y-192285771D02*
X203291485Y-193571485D01*
X203362914Y-193714342D01*
X203505771Y-193785771D01*
X203648628Y-193785771D01*
X204720057Y-193714342D02*
X204577200Y-193785771D01*
X204291485Y-193785771D01*
X204148628Y-193714342D01*
X204077200Y-193571485D01*
X204077200Y-193000057D01*
X204148628Y-192857200D01*
X204291485Y-192785771D01*
X204577200Y-192785771D01*
X204720057Y-192857200D01*
X204791485Y-193000057D01*
X204791485Y-193142914D01*
X204077200Y-193285771D01*
X205434342Y-193642914D02*
X205505771Y-193714342D01*
X205434342Y-193785771D01*
X205362914Y-193714342D01*
X205434342Y-193642914D01*
X205434342Y-193785771D01*
X205434342Y-192857200D02*
X205505771Y-192928628D01*
X205434342Y-193000057D01*
X205362914Y-192928628D01*
X205434342Y-192857200D01*
X205434342Y-193000057D01*
D10*
D11*
X177002200Y-194507200D02*
X285002200Y-194507200D01*
D10*
D11*
X178434342Y-196585771D02*
X178434342Y-195085771D01*
X179291485Y-196585771D02*
X178648628Y-195728628D01*
X179291485Y-195085771D02*
X178434342Y-195942914D01*
X179934342Y-196585771D02*
X179934342Y-195585771D01*
X179934342Y-195085771D02*
X179862914Y-195157200D01*
X179934342Y-195228628D01*
X180005771Y-195157200D01*
X179934342Y-195085771D01*
X179934342Y-195228628D01*
X181505771Y-196442914D02*
X181434342Y-196514342D01*
X181220057Y-196585771D01*
X181077200Y-196585771D01*
X180862914Y-196514342D01*
X180720057Y-196371485D01*
X180648628Y-196228628D01*
X180577200Y-195942914D01*
X180577200Y-195728628D01*
X180648628Y-195442914D01*
X180720057Y-195300057D01*
X180862914Y-195157200D01*
X181077200Y-195085771D01*
X181220057Y-195085771D01*
X181434342Y-195157200D01*
X181505771Y-195228628D01*
X182791485Y-196585771D02*
X182791485Y-195800057D01*
X182720057Y-195657200D01*
X182577200Y-195585771D01*
X182291485Y-195585771D01*
X182148628Y-195657200D01*
X182791485Y-196514342D02*
X182648628Y-196585771D01*
X182291485Y-196585771D01*
X182148628Y-196514342D01*
X182077200Y-196371485D01*
X182077200Y-196228628D01*
X182148628Y-196085771D01*
X182291485Y-196014342D01*
X182648628Y-196014342D01*
X182791485Y-195942914D01*
X184148628Y-196585771D02*
X184148628Y-195085771D01*
X184148628Y-196514342D02*
X184005771Y-196585771D01*
X183720057Y-196585771D01*
X183577200Y-196514342D01*
X183505771Y-196442914D01*
X183434342Y-196300057D01*
X183434342Y-195871485D01*
X183505771Y-195728628D01*
X183577200Y-195657200D01*
X183720057Y-195585771D01*
X184005771Y-195585771D01*
X184148628Y-195657200D01*
X186005771Y-195800057D02*
X186505771Y-195800057D01*
X186720057Y-196585771D02*
X186005771Y-196585771D01*
X186005771Y-195085771D01*
X186720057Y-195085771D01*
X187362914Y-196442914D02*
X187434342Y-196514342D01*
X187362914Y-196585771D01*
X187291485Y-196514342D01*
X187362914Y-196442914D01*
X187362914Y-196585771D01*
X188077200Y-196585771D02*
X188077200Y-195085771D01*
X188434342Y-195085771D01*
X188648628Y-195157200D01*
X188791485Y-195300057D01*
X188862914Y-195442914D01*
X188934342Y-195728628D01*
X188934342Y-195942914D01*
X188862914Y-196228628D01*
X188791485Y-196371485D01*
X188648628Y-196514342D01*
X188434342Y-196585771D01*
X188077200Y-196585771D01*
X189577200Y-196442914D02*
X189648628Y-196514342D01*
X189577200Y-196585771D01*
X189505771Y-196514342D01*
X189577200Y-196442914D01*
X189577200Y-196585771D01*
X190220057Y-196157200D02*
X190934342Y-196157200D01*
X190077200Y-196585771D02*
X190577200Y-195085771D01*
X191077200Y-196585771D01*
X191577200Y-196442914D02*
X191648628Y-196514342D01*
X191577200Y-196585771D01*
X191505771Y-196514342D01*
X191577200Y-196442914D01*
X191577200Y-196585771D01*
X194577200Y-196585771D02*
X194577200Y-195085771D01*
X194720057Y-196014342D02*
X195148628Y-196585771D01*
X195148628Y-195585771D02*
X194577200Y-196157200D01*
X195791485Y-196585771D02*
X195791485Y-195585771D01*
X195791485Y-195085771D02*
X195720057Y-195157200D01*
X195791485Y-195228628D01*
X195862914Y-195157200D01*
X195791485Y-195085771D01*
X195791485Y-195228628D01*
X197148628Y-196514342D02*
X197005771Y-196585771D01*
X196720057Y-196585771D01*
X196577200Y-196514342D01*
X196505771Y-196442914D01*
X196434342Y-196300057D01*
X196434342Y-195871485D01*
X196505771Y-195728628D01*
X196577200Y-195657200D01*
X196720057Y-195585771D01*
X197005771Y-195585771D01*
X197148628Y-195657200D01*
X198434342Y-196585771D02*
X198434342Y-195800057D01*
X198362914Y-195657200D01*
X198220057Y-195585771D01*
X197934342Y-195585771D01*
X197791485Y-195657200D01*
X198434342Y-196514342D02*
X198291485Y-196585771D01*
X197934342Y-196585771D01*
X197791485Y-196514342D01*
X197720057Y-196371485D01*
X197720057Y-196228628D01*
X197791485Y-196085771D01*
X197934342Y-196014342D01*
X198291485Y-196014342D01*
X198434342Y-195942914D01*
X199791485Y-196585771D02*
X199791485Y-195085771D01*
X199791485Y-196514342D02*
X199648628Y-196585771D01*
X199362914Y-196585771D01*
X199220057Y-196514342D01*
X199148628Y-196442914D01*
X199077200Y-196300057D01*
X199077200Y-195871485D01*
X199148628Y-195728628D01*
X199220057Y-195657200D01*
X199362914Y-195585771D01*
X199648628Y-195585771D01*
X199791485Y-195657200D01*
X202362914Y-195085771D02*
X201648628Y-195085771D01*
X201577200Y-195800057D01*
X201648628Y-195728628D01*
X201791485Y-195657200D01*
X202148628Y-195657200D01*
X202291485Y-195728628D01*
X202362914Y-195800057D01*
X202434342Y-195942914D01*
X202434342Y-196300057D01*
X202362914Y-196442914D01*
X202291485Y-196514342D01*
X202148628Y-196585771D01*
X201791485Y-196585771D01*
X201648628Y-196514342D01*
X201577200Y-196442914D01*
X203077200Y-196442914D02*
X203148628Y-196514342D01*
X203077200Y-196585771D01*
X203005771Y-196514342D01*
X203077200Y-196442914D01*
X203077200Y-196585771D01*
X204577200Y-196585771D02*
X203720057Y-196585771D01*
X204148628Y-196585771D02*
X204148628Y-195085771D01*
X204005771Y-195300057D01*
X203862914Y-195442914D01*
X203720057Y-195514342D01*
X205220057Y-196442914D02*
X205291485Y-196514342D01*
X205220057Y-196585771D01*
X205148628Y-196514342D01*
X205220057Y-196442914D01*
X205220057Y-196585771D01*
X206648628Y-195085771D02*
X205934342Y-195085771D01*
X205862914Y-195800057D01*
X205934342Y-195728628D01*
X206077200Y-195657200D01*
X206434342Y-195657200D01*
X206577200Y-195728628D01*
X206648628Y-195800057D01*
X206720057Y-195942914D01*
X206720057Y-196300057D01*
X206648628Y-196442914D01*
X206577200Y-196514342D01*
X206434342Y-196585771D01*
X206077200Y-196585771D01*
X205934342Y-196514342D01*
X205862914Y-196442914D01*
X207362914Y-196014342D02*
X208505771Y-196014342D01*
X207934342Y-196585771D02*
X207934342Y-195442914D01*
X209862914Y-196585771D02*
X209862914Y-195085771D01*
X209862914Y-196514342D02*
X209720057Y-196585771D01*
X209434342Y-196585771D01*
X209291485Y-196514342D01*
X209220057Y-196442914D01*
X209148628Y-196300057D01*
X209148628Y-195871485D01*
X209220057Y-195728628D01*
X209291485Y-195657200D01*
X209434342Y-195585771D01*
X209720057Y-195585771D01*
X209862914Y-195657200D01*
X210362914Y-195585771D02*
X210934342Y-195585771D01*
X210577200Y-196585771D02*
X210577200Y-195300057D01*
X210648628Y-195157200D01*
X210791485Y-195085771D01*
X210934342Y-195085771D01*
X211362914Y-196514342D02*
X211505771Y-196585771D01*
X211791485Y-196585771D01*
X211934342Y-196514342D01*
X212005771Y-196371485D01*
X212005771Y-196300057D01*
X211934342Y-196157200D01*
X211791485Y-196085771D01*
X211577200Y-196085771D01*
X211434342Y-196014342D01*
X211362914Y-195871485D01*
X211362914Y-195800057D01*
X211434342Y-195657200D01*
X211577200Y-195585771D01*
X211791485Y-195585771D01*
X211934342Y-195657200D01*
X213291485Y-195585771D02*
X213291485Y-196800057D01*
X213220057Y-196942914D01*
X213148628Y-197014342D01*
X213005771Y-197085771D01*
X212791485Y-197085771D01*
X212648628Y-197014342D01*
X213291485Y-196514342D02*
X213148628Y-196585771D01*
X212862914Y-196585771D01*
X212720057Y-196514342D01*
X212648628Y-196442914D01*
X212577200Y-196300057D01*
X212577200Y-195871485D01*
X212648628Y-195728628D01*
X212720057Y-195657200D01*
X212862914Y-195585771D01*
X213148628Y-195585771D01*
X213291485Y-195657200D01*
X214791485Y-196585771D02*
X213934342Y-196585771D01*
X214362914Y-196585771D02*
X214362914Y-195085771D01*
X214220057Y-195300057D01*
X214077200Y-195442914D01*
X213934342Y-195514342D01*
X215434342Y-196014342D02*
X216577200Y-196014342D01*
X217220057Y-195228628D02*
X217291485Y-195157200D01*
X217434342Y-195085771D01*
X217791485Y-195085771D01*
X217934342Y-195157200D01*
X218005771Y-195228628D01*
X218077200Y-195371485D01*
X218077200Y-195514342D01*
X218005771Y-195728628D01*
X217148628Y-196585771D01*
X218077200Y-196585771D01*
X218720057Y-196585771D02*
X218720057Y-195085771D01*
X218720057Y-195657200D02*
X218862914Y-195585771D01*
X219148628Y-195585771D01*
X219291485Y-195657200D01*
X219362914Y-195728628D01*
X219434342Y-195871485D01*
X219434342Y-196300057D01*
X219362914Y-196442914D01*
X219291485Y-196514342D01*
X219148628Y-196585771D01*
X218862914Y-196585771D01*
X218720057Y-196514342D01*
X220720057Y-195585771D02*
X220720057Y-196585771D01*
X220077200Y-195585771D02*
X220077200Y-196371485D01*
X220148628Y-196514342D01*
X220291485Y-196585771D01*
X220505771Y-196585771D01*
X220648628Y-196514342D01*
X220720057Y-196442914D01*
X221434342Y-196585771D02*
X221434342Y-195585771D01*
X221434342Y-195085771D02*
X221362914Y-195157200D01*
X221434342Y-195228628D01*
X221505771Y-195157200D01*
X221434342Y-195085771D01*
X221434342Y-195228628D01*
X222362914Y-196585771D02*
X222220057Y-196514342D01*
X222148628Y-196371485D01*
X222148628Y-195085771D01*
X223577200Y-196585771D02*
X223577200Y-195085771D01*
X223577200Y-196514342D02*
X223434342Y-196585771D01*
X223148628Y-196585771D01*
X223005771Y-196514342D01*
X222934342Y-196442914D01*
X222862914Y-196300057D01*
X222862914Y-195871485D01*
X222934342Y-195728628D01*
X223005771Y-195657200D01*
X223148628Y-195585771D01*
X223434342Y-195585771D01*
X223577200Y-195657200D01*
X224220057Y-195228628D02*
X224291485Y-195157200D01*
X224434342Y-195085771D01*
X224791485Y-195085771D01*
X224934342Y-195157200D01*
X225005771Y-195228628D01*
X225077200Y-195371485D01*
X225077200Y-195514342D01*
X225005771Y-195728628D01*
X224148628Y-196585771D01*
X225077200Y-196585771D01*
D10*
D11*
X177002200Y-191507200D02*
X285002200Y-191507200D01*
D10*
D12*
X264411485Y-193785771D02*
X263911485Y-193071485D01*
X263554342Y-193785771D02*
X263554342Y-192285771D01*
X264125771Y-192285771D01*
X264268628Y-192357200D01*
X264340057Y-192428628D01*
X264411485Y-192571485D01*
X264411485Y-192785771D01*
X264340057Y-192928628D01*
X264268628Y-193000057D01*
X264125771Y-193071485D01*
X263554342Y-193071485D01*
X265625771Y-193714342D02*
X265482914Y-193785771D01*
X265197200Y-193785771D01*
X265054342Y-193714342D01*
X264982914Y-193571485D01*
X264982914Y-193000057D01*
X265054342Y-192857200D01*
X265197200Y-192785771D01*
X265482914Y-192785771D01*
X265625771Y-192857200D01*
X265697200Y-193000057D01*
X265697200Y-193142914D01*
X264982914Y-193285771D01*
X266197200Y-192785771D02*
X266554342Y-193785771D01*
X266911485Y-192785771D01*
X267482914Y-193642914D02*
X267554342Y-193714342D01*
X267482914Y-193785771D01*
X267411485Y-193714342D01*
X267482914Y-193642914D01*
X267482914Y-193785771D01*
X267482914Y-192857200D02*
X267554342Y-192928628D01*
X267482914Y-193000057D01*
X267411485Y-192928628D01*
X267482914Y-192857200D01*
X267482914Y-193000057D01*
D10*
D11*
X178362914Y-193714342D02*
X178577200Y-193785771D01*
X178934342Y-193785771D01*
X179077200Y-193714342D01*
X179148628Y-193642914D01*
X179220057Y-193500057D01*
X179220057Y-193357200D01*
X179148628Y-193214342D01*
X179077200Y-193142914D01*
X178934342Y-193071485D01*
X178648628Y-193000057D01*
X178505771Y-192928628D01*
X178434342Y-192857200D01*
X178362914Y-192714342D01*
X178362914Y-192571485D01*
X178434342Y-192428628D01*
X178505771Y-192357200D01*
X178648628Y-192285771D01*
X179005771Y-192285771D01*
X179220057Y-192357200D01*
X179862914Y-193785771D02*
X179862914Y-192785771D01*
X179862914Y-192285771D02*
X179791485Y-192357200D01*
X179862914Y-192428628D01*
X179934342Y-192357200D01*
X179862914Y-192285771D01*
X179862914Y-192428628D01*
X180434342Y-192785771D02*
X181220057Y-192785771D01*
X180434342Y-193785771D01*
X181220057Y-193785771D01*
X182362914Y-193714342D02*
X182220057Y-193785771D01*
X181934342Y-193785771D01*
X181791485Y-193714342D01*
X181720057Y-193571485D01*
X181720057Y-193000057D01*
X181791485Y-192857200D01*
X181934342Y-192785771D01*
X182220057Y-192785771D01*
X182362914Y-192857200D01*
X182434342Y-193000057D01*
X182434342Y-193142914D01*
X181720057Y-193285771D01*
X183077200Y-193642914D02*
X183148628Y-193714342D01*
X183077200Y-193785771D01*
X183005771Y-193714342D01*
X183077200Y-193642914D01*
X183077200Y-193785771D01*
X183077200Y-192857200D02*
X183148628Y-192928628D01*
X183077200Y-193000057D01*
X183005771Y-192928628D01*
X183077200Y-192857200D01*
X183077200Y-193000057D01*
X184862914Y-193357200D02*
X185577200Y-193357200D01*
X184720057Y-193785771D02*
X185220057Y-192285771D01*
X185720057Y-193785771D01*
X186862914Y-192785771D02*
X186862914Y-193785771D01*
X186505771Y-192214342D02*
X186148628Y-193285771D01*
X187077200Y-193285771D01*
D10*
D11*
X263434342Y-196585771D02*
X263434342Y-195085771D01*
X264791485Y-196585771D02*
X264791485Y-195085771D01*
X264791485Y-196514342D02*
X264648628Y-196585771D01*
X264362914Y-196585771D01*
X264220057Y-196514342D01*
X264148628Y-196442914D01*
X264077200Y-196300057D01*
X264077200Y-195871485D01*
X264148628Y-195728628D01*
X264220057Y-195657200D01*
X264362914Y-195585771D01*
X264648628Y-195585771D01*
X264791485Y-195657200D01*
X265505771Y-196442914D02*
X265577200Y-196514342D01*
X265505771Y-196585771D01*
X265434342Y-196514342D01*
X265505771Y-196442914D01*
X265505771Y-196585771D01*
X265505771Y-195657200D02*
X265577200Y-195728628D01*
X265505771Y-195800057D01*
X265434342Y-195728628D01*
X265505771Y-195657200D01*
X265505771Y-195800057D01*
X268148628Y-196585771D02*
X267291485Y-196585771D01*
X267720057Y-196585771D02*
X267720057Y-195085771D01*
X267577200Y-195300057D01*
X267434342Y-195442914D01*
X267291485Y-195514342D01*
X269862914Y-195014342D02*
X268577200Y-196942914D01*
X271148628Y-196585771D02*
X270291485Y-196585771D01*
X270720057Y-196585771D02*
X270720057Y-195085771D01*
X270577200Y-195300057D01*
X270434342Y-195442914D01*
X270291485Y-195514342D01*
D10*
D11*
X177002200Y-187507200D02*
X285002200Y-187507200D01*
D10*
D13*
X178714580Y-188211961D02*
X179857438Y-188211961D01*
X179036009Y-190211961D02*
X179286009Y-188211961D01*
X180274104Y-190211961D02*
X180440771Y-188878628D01*
X180524104Y-188211961D02*
X180416961Y-188307200D01*
X180500295Y-188402438D01*
X180607438Y-188307200D01*
X180524104Y-188211961D01*
X180500295Y-188402438D01*
X181107438Y-188878628D02*
X181869342Y-188878628D01*
X181476485Y-188211961D02*
X181262200Y-189926247D01*
X181333628Y-190116723D01*
X181512200Y-190211961D01*
X181702676Y-190211961D01*
X182655057Y-190211961D02*
X182476485Y-190116723D01*
X182405057Y-189926247D01*
X182619342Y-188211961D01*
X184190771Y-190116723D02*
X183988390Y-190211961D01*
X183607438Y-190211961D01*
X183428866Y-190116723D01*
X183357438Y-189926247D01*
X183452676Y-189164342D01*
X183571723Y-188973866D01*
X183774104Y-188878628D01*
X184155057Y-188878628D01*
X184333628Y-188973866D01*
X184405057Y-189164342D01*
X184381247Y-189354819D01*
X183405057Y-189545295D01*
X185155057Y-190021485D02*
X185238390Y-190116723D01*
X185131247Y-190211961D01*
X185047914Y-190116723D01*
X185155057Y-190021485D01*
X185131247Y-190211961D01*
X185286009Y-188973866D02*
X185369342Y-189069104D01*
X185262200Y-189164342D01*
X185178866Y-189069104D01*
X185286009Y-188973866D01*
X185262200Y-189164342D01*
D10*
D11*
X178934342Y-185600057D02*
X178434342Y-185600057D01*
X178434342Y-186385771D02*
X178434342Y-184885771D01*
X179148628Y-184885771D01*
X179720057Y-186385771D02*
X179720057Y-185385771D01*
X179720057Y-184885771D02*
X179648628Y-184957200D01*
X179720057Y-185028628D01*
X179791485Y-184957200D01*
X179720057Y-184885771D01*
X179720057Y-185028628D01*
X180648628Y-186385771D02*
X180505771Y-186314342D01*
X180434342Y-186171485D01*
X180434342Y-184885771D01*
X181791485Y-186314342D02*
X181648628Y-186385771D01*
X181362914Y-186385771D01*
X181220057Y-186314342D01*
X181148628Y-186171485D01*
X181148628Y-185600057D01*
X181220057Y-185457200D01*
X181362914Y-185385771D01*
X181648628Y-185385771D01*
X181791485Y-185457200D01*
X181862914Y-185600057D01*
X181862914Y-185742914D01*
X181148628Y-185885771D01*
X182505771Y-186242914D02*
X182577200Y-186314342D01*
X182505771Y-186385771D01*
X182434342Y-186314342D01*
X182505771Y-186242914D01*
X182505771Y-186385771D01*
X182505771Y-185457200D02*
X182577200Y-185528628D01*
X182505771Y-185600057D01*
X182434342Y-185528628D01*
X182505771Y-185457200D01*
X182505771Y-185600057D01*
X185077200Y-186385771D02*
X184362914Y-186385771D01*
X184362914Y-184885771D01*
X185577200Y-185600057D02*
X186077200Y-185600057D01*
X186291485Y-186385771D02*
X185577200Y-186385771D01*
X185577200Y-184885771D01*
X186291485Y-184885771D01*
X186934342Y-186385771D02*
X186934342Y-184885771D01*
X187291485Y-184885771D01*
X187505771Y-184957200D01*
X187648628Y-185100057D01*
X187720057Y-185242914D01*
X187791485Y-185528628D01*
X187791485Y-185742914D01*
X187720057Y-186028628D01*
X187648628Y-186171485D01*
X187505771Y-186314342D01*
X187291485Y-186385771D01*
X186934342Y-186385771D01*
X188434342Y-186385771D02*
X188434342Y-184885771D01*
X189005771Y-184885771D01*
X189148628Y-184957200D01*
X189220057Y-185028628D01*
X189291485Y-185171485D01*
X189291485Y-185385771D01*
X189220057Y-185528628D01*
X189148628Y-185600057D01*
X189005771Y-185671485D01*
X188434342Y-185671485D01*
X190791485Y-186242914D02*
X190720057Y-186314342D01*
X190505771Y-186385771D01*
X190362914Y-186385771D01*
X190148628Y-186314342D01*
X190005771Y-186171485D01*
X189934342Y-186028628D01*
X189862914Y-185742914D01*
X189862914Y-185528628D01*
X189934342Y-185242914D01*
X190005771Y-185100057D01*
X190148628Y-184957200D01*
X190362914Y-184885771D01*
X190505771Y-184885771D01*
X190720057Y-184957200D01*
X190791485Y-185028628D01*
X191934342Y-185600057D02*
X192148628Y-185671485D01*
X192220057Y-185742914D01*
X192291485Y-185885771D01*
X192291485Y-186100057D01*
X192220057Y-186242914D01*
X192148628Y-186314342D01*
X192005771Y-186385771D01*
X191434342Y-186385771D01*
X191434342Y-184885771D01*
X191934342Y-184885771D01*
X192077200Y-184957200D01*
X192148628Y-185028628D01*
X192220057Y-185171485D01*
X192220057Y-185314342D01*
X192148628Y-185457200D01*
X192077200Y-185528628D01*
X191934342Y-185600057D01*
X191434342Y-185600057D01*
X192934342Y-186242914D02*
X193005771Y-186314342D01*
X192934342Y-186385771D01*
X192862914Y-186314342D01*
X192934342Y-186242914D01*
X192934342Y-186385771D01*
X193648628Y-186385771D02*
X193648628Y-184885771D01*
X193791485Y-185814342D02*
X194220057Y-186385771D01*
X194220057Y-185385771D02*
X193648628Y-185957200D01*
X194862914Y-186385771D02*
X194862914Y-185385771D01*
X194862914Y-184885771D02*
X194791485Y-184957200D01*
X194862914Y-185028628D01*
X194934342Y-184957200D01*
X194862914Y-184885771D01*
X194862914Y-185028628D01*
X196220057Y-186314342D02*
X196077200Y-186385771D01*
X195791485Y-186385771D01*
X195648628Y-186314342D01*
X195577200Y-186242914D01*
X195505771Y-186100057D01*
X195505771Y-185671485D01*
X195577200Y-185528628D01*
X195648628Y-185457200D01*
X195791485Y-185385771D01*
X196077200Y-185385771D01*
X196220057Y-185457200D01*
X197505771Y-186385771D02*
X197505771Y-185600057D01*
X197434342Y-185457200D01*
X197291485Y-185385771D01*
X197005771Y-185385771D01*
X196862914Y-185457200D01*
X197505771Y-186314342D02*
X197362914Y-186385771D01*
X197005771Y-186385771D01*
X196862914Y-186314342D01*
X196791485Y-186171485D01*
X196791485Y-186028628D01*
X196862914Y-185885771D01*
X197005771Y-185814342D01*
X197362914Y-185814342D01*
X197505771Y-185742914D01*
X198862914Y-186385771D02*
X198862914Y-184885771D01*
X198862914Y-186314342D02*
X198720057Y-186385771D01*
X198434342Y-186385771D01*
X198291485Y-186314342D01*
X198220057Y-186242914D01*
X198148628Y-186100057D01*
X198148628Y-185671485D01*
X198220057Y-185528628D01*
X198291485Y-185457200D01*
X198434342Y-185385771D01*
X198720057Y-185385771D01*
X198862914Y-185457200D01*
X199220057Y-186528628D02*
X200362914Y-186528628D01*
X200720057Y-185385771D02*
X200720057Y-186885771D01*
X200720057Y-185457200D02*
X200862914Y-185385771D01*
X201148628Y-185385771D01*
X201291485Y-185457200D01*
X201362914Y-185528628D01*
X201434342Y-185671485D01*
X201434342Y-186100057D01*
X201362914Y-186242914D01*
X201291485Y-186314342D01*
X201148628Y-186385771D01*
X200862914Y-186385771D01*
X200720057Y-186314342D01*
X202720057Y-186314342D02*
X202577200Y-186385771D01*
X202291485Y-186385771D01*
X202148628Y-186314342D01*
X202077200Y-186242914D01*
X202005771Y-186100057D01*
X202005771Y-185671485D01*
X202077200Y-185528628D01*
X202148628Y-185457200D01*
X202291485Y-185385771D01*
X202577200Y-185385771D01*
X202720057Y-185457200D01*
X203362914Y-186385771D02*
X203362914Y-184885771D01*
X203362914Y-185457200D02*
X203505771Y-185385771D01*
X203791485Y-185385771D01*
X203934342Y-185457200D01*
X204005771Y-185528628D01*
X204077200Y-185671485D01*
X204077200Y-186100057D01*
X204005771Y-186242914D01*
X203934342Y-186314342D01*
X203791485Y-186385771D01*
X203505771Y-186385771D01*
X203362914Y-186314342D01*
D10*
D11*
X177002200Y-181507200D02*
X285002200Y-181507200D01*
D10*
D11*
X178362914Y-183614342D02*
X178577200Y-183685771D01*
X178934342Y-183685771D01*
X179077200Y-183614342D01*
X179148628Y-183542914D01*
X179220057Y-183400057D01*
X179220057Y-183257200D01*
X179148628Y-183114342D01*
X179077200Y-183042914D01*
X178934342Y-182971485D01*
X178648628Y-182900057D01*
X178505771Y-182828628D01*
X178434342Y-182757200D01*
X178362914Y-182614342D01*
X178362914Y-182471485D01*
X178434342Y-182328628D01*
X178505771Y-182257200D01*
X178648628Y-182185771D01*
X179005771Y-182185771D01*
X179220057Y-182257200D01*
X179862914Y-183685771D02*
X179862914Y-182185771D01*
X180505771Y-183685771D02*
X180505771Y-182900057D01*
X180434342Y-182757200D01*
X180291485Y-182685771D01*
X180077200Y-182685771D01*
X179934342Y-182757200D01*
X179862914Y-182828628D01*
X181791485Y-183614342D02*
X181648628Y-183685771D01*
X181362914Y-183685771D01*
X181220057Y-183614342D01*
X181148628Y-183471485D01*
X181148628Y-182900057D01*
X181220057Y-182757200D01*
X181362914Y-182685771D01*
X181648628Y-182685771D01*
X181791485Y-182757200D01*
X181862914Y-182900057D01*
X181862914Y-183042914D01*
X181148628Y-183185771D01*
X183077200Y-183614342D02*
X182934342Y-183685771D01*
X182648628Y-183685771D01*
X182505771Y-183614342D01*
X182434342Y-183471485D01*
X182434342Y-182900057D01*
X182505771Y-182757200D01*
X182648628Y-182685771D01*
X182934342Y-182685771D01*
X183077200Y-182757200D01*
X183148628Y-182900057D01*
X183148628Y-183042914D01*
X182434342Y-183185771D01*
X183577200Y-182685771D02*
X184148628Y-182685771D01*
X183791485Y-182185771D02*
X183791485Y-183471485D01*
X183862914Y-183614342D01*
X184005771Y-183685771D01*
X184148628Y-183685771D01*
X184648628Y-183542914D02*
X184720057Y-183614342D01*
X184648628Y-183685771D01*
X184577200Y-183614342D01*
X184648628Y-183542914D01*
X184648628Y-183685771D01*
X184648628Y-182757200D02*
X184720057Y-182828628D01*
X184648628Y-182900057D01*
X184577200Y-182828628D01*
X184648628Y-182757200D01*
X184648628Y-182900057D01*
D10*
D11*
X197002200Y-191507200D02*
X197002200Y-194507200D01*
D10*
D11*
X261002200Y-191507200D02*
X261002200Y-198007200D01*
D10*
X107962500Y-86779000D02*
X107962500Y-85179000D01*
X107962500Y-85179000D02*
X104762500Y-85179000D01*
X104762500Y-85179000D02*
X104762500Y-86779000D01*
X104762500Y-86779000D02*
X107962500Y-86779000D01*
X112926500Y-89541000D02*
X112926500Y-87241000D01*
X109926500Y-87591000D02*
X109926500Y-89541000D01*
X112926500Y-87241000D02*
X110276500Y-87241000D01*
X110276500Y-87241000D02*
X109926500Y-87591000D01*
X109926500Y-89541000D02*
X112926500Y-89541000D01*
X110276500Y-87241000D02*
X110276500Y-85991000D01*
X110276500Y-85991000D02*
X110576500Y-85991000D01*
X110576500Y-85991000D02*
X110576500Y-87241000D01*
X110276500Y-89541000D02*
X110276500Y-90791000D01*
X110276500Y-90791000D02*
X110576500Y-90791000D01*
X110576500Y-90791000D02*
X110576500Y-89541000D01*
X111276500Y-87241000D02*
X111276500Y-85991000D01*
X111276500Y-85991000D02*
X111576500Y-85991000D01*
X111576500Y-85991000D02*
X111576500Y-87241000D01*
X111276500Y-89541000D02*
X111276500Y-90791000D01*
X111276500Y-90791000D02*
X111576500Y-90791000D01*
X111576500Y-90791000D02*
X111576500Y-89541000D01*
X112276500Y-87241000D02*
X112276500Y-85991000D01*
X112276500Y-85991000D02*
X112576500Y-85991000D01*
X112576500Y-85991000D02*
X112576500Y-87241000D01*
X112276500Y-89541000D02*
X112276500Y-90791000D01*
X112276500Y-90791000D02*
X112576500Y-90791000D01*
X112576500Y-90791000D02*
X112576500Y-89541000D01*
X101775000Y-88062000D02*
X106975000Y-88062000D01*
X106975000Y-88062000D02*
X107775000Y-88862000D01*
X107775000Y-88862000D02*
X107775000Y-91262000D01*
X107775000Y-91262000D02*
X101775000Y-91262000D01*
X101775000Y-91262000D02*
X101775000Y-88062000D01*
X172704000Y-70612000D02*
G75*
G03X172704000Y-70612000I-1000000J0D01*
G01*
X58150000Y-70358000D02*
G75*
G03X58150000Y-70358000I-1000000J0D01*
G01*
X172704000Y-89662000D02*
G75*
G03X172704000Y-89662000I-1000000J0D01*
G01*
D11*
X107897476Y-84431142D02*
X107945095Y-84478761D01*
X108087952Y-84526380D01*
X108183190Y-84526380D01*
X108326047Y-84478761D01*
X108421285Y-84383523D01*
X108468904Y-84288285D01*
X108516523Y-84097809D01*
X108516523Y-83954952D01*
X108468904Y-83764476D01*
X108421285Y-83669238D01*
X108326047Y-83574000D01*
X108183190Y-83526380D01*
X108087952Y-83526380D01*
X107945095Y-83574000D01*
X107897476Y-83621619D01*
D14*
X106876785Y-86264714D02*
X106914880Y-86302809D01*
X107029166Y-86340904D01*
X107105357Y-86340904D01*
X107219642Y-86302809D01*
X107295833Y-86226619D01*
X107333928Y-86150428D01*
X107372023Y-85998047D01*
X107372023Y-85883761D01*
X107333928Y-85731380D01*
X107295833Y-85655190D01*
X107219642Y-85579000D01*
X107105357Y-85540904D01*
X107029166Y-85540904D01*
X106914880Y-85579000D01*
X106876785Y-85617095D01*
X106610119Y-85540904D02*
X106114880Y-85540904D01*
X106381547Y-85845666D01*
X106267261Y-85845666D01*
X106191071Y-85883761D01*
X106152976Y-85921857D01*
X106114880Y-85998047D01*
X106114880Y-86188523D01*
X106152976Y-86264714D01*
X106191071Y-86302809D01*
X106267261Y-86340904D01*
X106495833Y-86340904D01*
X106572023Y-86302809D01*
X106610119Y-86264714D01*
X105352976Y-86340904D02*
X105810119Y-86340904D01*
X105581547Y-86340904D02*
X105581547Y-85540904D01*
X105657738Y-85655190D01*
X105733928Y-85731380D01*
X105810119Y-85769476D01*
D11*
X119426571Y-84050142D02*
X119474190Y-84097761D01*
X119617047Y-84145380D01*
X119712285Y-84145380D01*
X119855142Y-84097761D01*
X119950380Y-84002523D01*
X119998000Y-83907285D01*
X120045619Y-83716809D01*
X120045619Y-83573952D01*
X119998000Y-83383476D01*
X119950380Y-83288238D01*
X119855142Y-83193000D01*
X119712285Y-83145380D01*
X119617047Y-83145380D01*
X119474190Y-83193000D01*
X119426571Y-83240619D01*
X118855142Y-84145380D02*
X118950380Y-84097761D01*
X118998000Y-84050142D01*
X119045619Y-83954904D01*
X119045619Y-83669190D01*
X118998000Y-83573952D01*
X118950380Y-83526333D01*
X118855142Y-83478714D01*
X118712285Y-83478714D01*
X118617047Y-83526333D01*
X118569428Y-83573952D01*
X118521809Y-83669190D01*
X118521809Y-83954904D01*
X118569428Y-84050142D01*
X118617047Y-84097761D01*
X118712285Y-84145380D01*
X118855142Y-84145380D01*
X118093238Y-83478714D02*
X118093238Y-84145380D01*
X118093238Y-83573952D02*
X118045619Y-83526333D01*
X117950380Y-83478714D01*
X117807523Y-83478714D01*
X117712285Y-83526333D01*
X117664666Y-83621571D01*
X117664666Y-84145380D01*
X117188476Y-83478714D02*
X117188476Y-84145380D01*
X117188476Y-83573952D02*
X117140857Y-83526333D01*
X117045619Y-83478714D01*
X116902761Y-83478714D01*
X116807523Y-83526333D01*
X116759904Y-83621571D01*
X116759904Y-84145380D01*
X116521809Y-84240619D02*
X115759904Y-84240619D01*
X115331333Y-83145380D02*
X115236095Y-83145380D01*
X115140857Y-83193000D01*
X115093238Y-83240619D01*
X115045619Y-83335857D01*
X114998000Y-83526333D01*
X114998000Y-83764428D01*
X115045619Y-83954904D01*
X115093238Y-84050142D01*
X115140857Y-84097761D01*
X115236095Y-84145380D01*
X115331333Y-84145380D01*
X115426571Y-84097761D01*
X115474190Y-84050142D01*
X115521809Y-83954904D01*
X115569428Y-83764428D01*
X115569428Y-83526333D01*
X115521809Y-83335857D01*
X115474190Y-83240619D01*
X115426571Y-83193000D01*
X115331333Y-83145380D01*
X114617047Y-83240619D02*
X114569428Y-83193000D01*
X114474190Y-83145380D01*
X114236095Y-83145380D01*
X114140857Y-83193000D01*
X114093238Y-83240619D01*
X114045619Y-83335857D01*
X114045619Y-83431095D01*
X114093238Y-83573952D01*
X114664666Y-84145380D01*
X114045619Y-84145380D01*
X113712285Y-84145380D02*
X113188476Y-83478714D01*
X113712285Y-83478714D02*
X113188476Y-84145380D01*
X112617047Y-83145380D02*
X112521809Y-83145380D01*
X112426571Y-83193000D01*
X112378952Y-83240619D01*
X112331333Y-83335857D01*
X112283714Y-83526333D01*
X112283714Y-83764428D01*
X112331333Y-83954904D01*
X112378952Y-84050142D01*
X112426571Y-84097761D01*
X112521809Y-84145380D01*
X112617047Y-84145380D01*
X112712285Y-84097761D01*
X112759904Y-84050142D01*
X112807523Y-83954904D01*
X112855142Y-83764428D01*
X112855142Y-83526333D01*
X112807523Y-83335857D01*
X112759904Y-83240619D01*
X112712285Y-83193000D01*
X112617047Y-83145380D01*
X111950380Y-83145380D02*
X111331333Y-83145380D01*
X111664666Y-83526333D01*
X111521809Y-83526333D01*
X111426571Y-83573952D01*
X111378952Y-83621571D01*
X111331333Y-83716809D01*
X111331333Y-83954904D01*
X111378952Y-84050142D01*
X111426571Y-84097761D01*
X111521809Y-84145380D01*
X111807523Y-84145380D01*
X111902761Y-84097761D01*
X111950380Y-84050142D01*
X111140857Y-84240619D02*
X110378952Y-84240619D01*
X110283714Y-83145380D02*
X109712285Y-83145380D01*
X109998000Y-84145380D02*
X109998000Y-83145380D01*
X109236095Y-84145380D02*
X109331333Y-84097761D01*
X109378952Y-84050142D01*
X109426571Y-83954904D01*
X109426571Y-83669190D01*
X109378952Y-83573952D01*
X109331333Y-83526333D01*
X109236095Y-83478714D01*
X109093238Y-83478714D01*
X108998000Y-83526333D01*
X108950380Y-83573952D01*
X108902761Y-83669190D01*
X108902761Y-83954904D01*
X108950380Y-84050142D01*
X108998000Y-84097761D01*
X109093238Y-84145380D01*
X109236095Y-84145380D01*
X108474190Y-83478714D02*
X108474190Y-84478714D01*
X108474190Y-83526333D02*
X108378952Y-83478714D01*
X108188476Y-83478714D01*
X108093238Y-83526333D01*
X108045619Y-83573952D01*
X107998000Y-83669190D01*
X107998000Y-83954904D01*
X108045619Y-84050142D01*
X108093238Y-84097761D01*
X108188476Y-84145380D01*
X108378952Y-84145380D01*
X108474190Y-84097761D01*
X107807523Y-84240619D02*
X107045619Y-84240619D01*
X106474190Y-83621571D02*
X106331333Y-83669190D01*
X106283714Y-83716809D01*
X106236095Y-83812047D01*
X106236095Y-83954904D01*
X106283714Y-84050142D01*
X106331333Y-84097761D01*
X106426571Y-84145380D01*
X106807523Y-84145380D01*
X106807523Y-83145380D01*
X106474190Y-83145380D01*
X106378952Y-83193000D01*
X106331333Y-83240619D01*
X106283714Y-83335857D01*
X106283714Y-83431095D01*
X106331333Y-83526333D01*
X106378952Y-83573952D01*
X106474190Y-83621571D01*
X106807523Y-83621571D01*
X105664666Y-84145380D02*
X105759904Y-84097761D01*
X105807523Y-84050142D01*
X105855142Y-83954904D01*
X105855142Y-83669190D01*
X105807523Y-83573952D01*
X105759904Y-83526333D01*
X105664666Y-83478714D01*
X105521809Y-83478714D01*
X105426571Y-83526333D01*
X105378952Y-83573952D01*
X105331333Y-83669190D01*
X105331333Y-83954904D01*
X105378952Y-84050142D01*
X105426571Y-84097761D01*
X105521809Y-84145380D01*
X105664666Y-84145380D01*
X105045619Y-83478714D02*
X104664666Y-83478714D01*
X104902761Y-83145380D02*
X104902761Y-84002523D01*
X104855142Y-84097761D01*
X104759904Y-84145380D01*
X104664666Y-84145380D01*
X104474190Y-83478714D02*
X104093238Y-83478714D01*
X104331333Y-83145380D02*
X104331333Y-84002523D01*
X104283714Y-84097761D01*
X104188476Y-84145380D01*
X104093238Y-84145380D01*
X103617047Y-84145380D02*
X103712285Y-84097761D01*
X103759904Y-84050142D01*
X103807523Y-83954904D01*
X103807523Y-83669190D01*
X103759904Y-83573952D01*
X103712285Y-83526333D01*
X103617047Y-83478714D01*
X103474190Y-83478714D01*
X103378952Y-83526333D01*
X103331333Y-83573952D01*
X103283714Y-83669190D01*
X103283714Y-83954904D01*
X103331333Y-84050142D01*
X103378952Y-84097761D01*
X103474190Y-84145380D01*
X103617047Y-84145380D01*
X102855142Y-84145380D02*
X102855142Y-83478714D01*
X102855142Y-83573952D02*
X102807523Y-83526333D01*
X102712285Y-83478714D01*
X102569428Y-83478714D01*
X102474190Y-83526333D01*
X102426571Y-83621571D01*
X102426571Y-84145380D01*
X102426571Y-83621571D02*
X102378952Y-83526333D01*
X102283714Y-83478714D01*
X102140857Y-83478714D01*
X102045619Y-83526333D01*
X101998000Y-83621571D01*
X101998000Y-84145380D01*
X111759833Y-87843380D02*
X111759833Y-88557666D01*
X111807452Y-88700523D01*
X111902690Y-88795761D01*
X112045547Y-88843380D01*
X112140785Y-88843380D01*
X110759833Y-88843380D02*
X111331261Y-88843380D01*
X111045547Y-88843380D02*
X111045547Y-87843380D01*
X111140785Y-87986238D01*
X111236023Y-88081476D01*
X111331261Y-88129095D01*
X104965476Y-92569142D02*
X105013095Y-92616761D01*
X105155952Y-92664380D01*
X105251190Y-92664380D01*
X105394047Y-92616761D01*
X105489285Y-92521523D01*
X105536904Y-92426285D01*
X105584523Y-92235809D01*
X105584523Y-92092952D01*
X105536904Y-91902476D01*
X105489285Y-91807238D01*
X105394047Y-91712000D01*
X105251190Y-91664380D01*
X105155952Y-91664380D01*
X105013095Y-91712000D01*
X104965476Y-91759619D01*
X104536904Y-92664380D02*
X104536904Y-91664380D01*
X104155952Y-91664380D01*
X104060714Y-91712000D01*
X104013095Y-91759619D01*
X103965476Y-91854857D01*
X103965476Y-91997714D01*
X104013095Y-92092952D01*
X104060714Y-92140571D01*
X104155952Y-92188190D01*
X104536904Y-92188190D01*
X105417857Y-90019142D02*
X105465476Y-90066761D01*
X105608333Y-90114380D01*
X105703571Y-90114380D01*
X105846428Y-90066761D01*
X105941666Y-89971523D01*
X105989285Y-89876285D01*
X106036904Y-89685809D01*
X106036904Y-89542952D01*
X105989285Y-89352476D01*
X105941666Y-89257238D01*
X105846428Y-89162000D01*
X105703571Y-89114380D01*
X105608333Y-89114380D01*
X105465476Y-89162000D01*
X105417857Y-89209619D01*
X105084523Y-89114380D02*
X104465476Y-89114380D01*
X104798809Y-89495333D01*
X104655952Y-89495333D01*
X104560714Y-89542952D01*
X104513095Y-89590571D01*
X104465476Y-89685809D01*
X104465476Y-89923904D01*
X104513095Y-90019142D01*
X104560714Y-90066761D01*
X104655952Y-90114380D01*
X104941666Y-90114380D01*
X105036904Y-90066761D01*
X105084523Y-90019142D01*
X104084523Y-89209619D02*
X104036904Y-89162000D01*
X103941666Y-89114380D01*
X103703571Y-89114380D01*
X103608333Y-89162000D01*
X103560714Y-89209619D01*
X103513095Y-89304857D01*
X103513095Y-89400095D01*
X103560714Y-89542952D01*
X104132142Y-90114380D01*
X103513095Y-90114380D01*
X174084952Y-68540571D02*
X174418285Y-68540571D01*
X174418285Y-69064380D02*
X174418285Y-68064380D01*
X173942095Y-68064380D01*
X173561142Y-69064380D02*
X173561142Y-68397714D01*
X173561142Y-68064380D02*
X173608761Y-68112000D01*
X173561142Y-68159619D01*
X173513523Y-68112000D01*
X173561142Y-68064380D01*
X173561142Y-68159619D01*
X172656380Y-69064380D02*
X172656380Y-68064380D01*
X172656380Y-69016761D02*
X172751619Y-69064380D01*
X172942095Y-69064380D01*
X173037333Y-69016761D01*
X173084952Y-68969142D01*
X173132571Y-68873904D01*
X173132571Y-68588190D01*
X173084952Y-68492952D01*
X173037333Y-68445333D01*
X172942095Y-68397714D01*
X172751619Y-68397714D01*
X172656380Y-68445333D01*
X171751619Y-68397714D02*
X171751619Y-69064380D01*
X172180190Y-68397714D02*
X172180190Y-68921523D01*
X172132571Y-69016761D01*
X172037333Y-69064380D01*
X171894476Y-69064380D01*
X171799238Y-69016761D01*
X171751619Y-68969142D01*
X170846857Y-69016761D02*
X170942095Y-69064380D01*
X171132571Y-69064380D01*
X171227809Y-69016761D01*
X171275428Y-68969142D01*
X171323047Y-68873904D01*
X171323047Y-68588190D01*
X171275428Y-68492952D01*
X171227809Y-68445333D01*
X171132571Y-68397714D01*
X170942095Y-68397714D01*
X170846857Y-68445333D01*
X170418285Y-69064380D02*
X170418285Y-68397714D01*
X170418285Y-68064380D02*
X170465904Y-68112000D01*
X170418285Y-68159619D01*
X170370666Y-68112000D01*
X170418285Y-68064380D01*
X170418285Y-68159619D01*
X169513523Y-69064380D02*
X169513523Y-68540571D01*
X169561142Y-68445333D01*
X169656380Y-68397714D01*
X169846857Y-68397714D01*
X169942095Y-68445333D01*
X169513523Y-69016761D02*
X169608761Y-69064380D01*
X169846857Y-69064380D01*
X169942095Y-69016761D01*
X169989714Y-68921523D01*
X169989714Y-68826285D01*
X169942095Y-68731047D01*
X169846857Y-68683428D01*
X169608761Y-68683428D01*
X169513523Y-68635809D01*
X168894476Y-69064380D02*
X168989714Y-69016761D01*
X169037333Y-68921523D01*
X169037333Y-68064380D01*
D15*
X172132571Y-70583428D02*
X172265904Y-70583428D01*
X172265904Y-70792952D02*
X172265904Y-70392952D01*
X172075428Y-70392952D01*
X171923047Y-70792952D02*
X171923047Y-70392952D01*
X171732571Y-70792952D02*
X171732571Y-70392952D01*
X171637333Y-70392952D01*
X171580190Y-70412000D01*
X171542095Y-70450095D01*
X171523047Y-70488190D01*
X171504000Y-70564380D01*
X171504000Y-70621523D01*
X171523047Y-70697714D01*
X171542095Y-70735809D01*
X171580190Y-70773904D01*
X171637333Y-70792952D01*
X171732571Y-70792952D01*
X171161142Y-70526285D02*
X171161142Y-70792952D01*
X171256380Y-70373904D02*
X171351619Y-70659619D01*
X171104000Y-70659619D01*
D11*
X59530952Y-68286571D02*
X59864285Y-68286571D01*
X59864285Y-68810380D02*
X59864285Y-67810380D01*
X59388095Y-67810380D01*
X59007142Y-68810380D02*
X59007142Y-68143714D01*
X59007142Y-67810380D02*
X59054761Y-67858000D01*
X59007142Y-67905619D01*
X58959523Y-67858000D01*
X59007142Y-67810380D01*
X59007142Y-67905619D01*
X58102380Y-68810380D02*
X58102380Y-67810380D01*
X58102380Y-68762761D02*
X58197619Y-68810380D01*
X58388095Y-68810380D01*
X58483333Y-68762761D01*
X58530952Y-68715142D01*
X58578571Y-68619904D01*
X58578571Y-68334190D01*
X58530952Y-68238952D01*
X58483333Y-68191333D01*
X58388095Y-68143714D01*
X58197619Y-68143714D01*
X58102380Y-68191333D01*
X57197619Y-68143714D02*
X57197619Y-68810380D01*
X57626190Y-68143714D02*
X57626190Y-68667523D01*
X57578571Y-68762761D01*
X57483333Y-68810380D01*
X57340476Y-68810380D01*
X57245238Y-68762761D01*
X57197619Y-68715142D01*
X56292857Y-68762761D02*
X56388095Y-68810380D01*
X56578571Y-68810380D01*
X56673809Y-68762761D01*
X56721428Y-68715142D01*
X56769047Y-68619904D01*
X56769047Y-68334190D01*
X56721428Y-68238952D01*
X56673809Y-68191333D01*
X56578571Y-68143714D01*
X56388095Y-68143714D01*
X56292857Y-68191333D01*
X55864285Y-68810380D02*
X55864285Y-68143714D01*
X55864285Y-67810380D02*
X55911904Y-67858000D01*
X55864285Y-67905619D01*
X55816666Y-67858000D01*
X55864285Y-67810380D01*
X55864285Y-67905619D01*
X54959523Y-68810380D02*
X54959523Y-68286571D01*
X55007142Y-68191333D01*
X55102380Y-68143714D01*
X55292857Y-68143714D01*
X55388095Y-68191333D01*
X54959523Y-68762761D02*
X55054761Y-68810380D01*
X55292857Y-68810380D01*
X55388095Y-68762761D01*
X55435714Y-68667523D01*
X55435714Y-68572285D01*
X55388095Y-68477047D01*
X55292857Y-68429428D01*
X55054761Y-68429428D01*
X54959523Y-68381809D01*
X54340476Y-68810380D02*
X54435714Y-68762761D01*
X54483333Y-68667523D01*
X54483333Y-67810380D01*
D15*
X57578571Y-70329428D02*
X57711904Y-70329428D01*
X57711904Y-70538952D02*
X57711904Y-70138952D01*
X57521428Y-70138952D01*
X57369047Y-70538952D02*
X57369047Y-70138952D01*
X57178571Y-70538952D02*
X57178571Y-70138952D01*
X57083333Y-70138952D01*
X57026190Y-70158000D01*
X56988095Y-70196095D01*
X56969047Y-70234190D01*
X56950000Y-70310380D01*
X56950000Y-70367523D01*
X56969047Y-70443714D01*
X56988095Y-70481809D01*
X57026190Y-70519904D01*
X57083333Y-70538952D01*
X57178571Y-70538952D01*
X56588095Y-70138952D02*
X56778571Y-70138952D01*
X56797619Y-70329428D01*
X56778571Y-70310380D01*
X56740476Y-70291333D01*
X56645238Y-70291333D01*
X56607142Y-70310380D01*
X56588095Y-70329428D01*
X56569047Y-70367523D01*
X56569047Y-70462761D01*
X56588095Y-70500857D01*
X56607142Y-70519904D01*
X56645238Y-70538952D01*
X56740476Y-70538952D01*
X56778571Y-70519904D01*
X56797619Y-70500857D01*
D11*
X174084952Y-87590571D02*
X174418285Y-87590571D01*
X174418285Y-88114380D02*
X174418285Y-87114380D01*
X173942095Y-87114380D01*
X173561142Y-88114380D02*
X173561142Y-87447714D01*
X173561142Y-87114380D02*
X173608761Y-87162000D01*
X173561142Y-87209619D01*
X173513523Y-87162000D01*
X173561142Y-87114380D01*
X173561142Y-87209619D01*
X172656380Y-88114380D02*
X172656380Y-87114380D01*
X172656380Y-88066761D02*
X172751619Y-88114380D01*
X172942095Y-88114380D01*
X173037333Y-88066761D01*
X173084952Y-88019142D01*
X173132571Y-87923904D01*
X173132571Y-87638190D01*
X173084952Y-87542952D01*
X173037333Y-87495333D01*
X172942095Y-87447714D01*
X172751619Y-87447714D01*
X172656380Y-87495333D01*
X171751619Y-87447714D02*
X171751619Y-88114380D01*
X172180190Y-87447714D02*
X172180190Y-87971523D01*
X172132571Y-88066761D01*
X172037333Y-88114380D01*
X171894476Y-88114380D01*
X171799238Y-88066761D01*
X171751619Y-88019142D01*
X170846857Y-88066761D02*
X170942095Y-88114380D01*
X171132571Y-88114380D01*
X171227809Y-88066761D01*
X171275428Y-88019142D01*
X171323047Y-87923904D01*
X171323047Y-87638190D01*
X171275428Y-87542952D01*
X171227809Y-87495333D01*
X171132571Y-87447714D01*
X170942095Y-87447714D01*
X170846857Y-87495333D01*
X170418285Y-88114380D02*
X170418285Y-87447714D01*
X170418285Y-87114380D02*
X170465904Y-87162000D01*
X170418285Y-87209619D01*
X170370666Y-87162000D01*
X170418285Y-87114380D01*
X170418285Y-87209619D01*
X169513523Y-88114380D02*
X169513523Y-87590571D01*
X169561142Y-87495333D01*
X169656380Y-87447714D01*
X169846857Y-87447714D01*
X169942095Y-87495333D01*
X169513523Y-88066761D02*
X169608761Y-88114380D01*
X169846857Y-88114380D01*
X169942095Y-88066761D01*
X169989714Y-87971523D01*
X169989714Y-87876285D01*
X169942095Y-87781047D01*
X169846857Y-87733428D01*
X169608761Y-87733428D01*
X169513523Y-87685809D01*
X168894476Y-88114380D02*
X168989714Y-88066761D01*
X169037333Y-87971523D01*
X169037333Y-87114380D01*
D15*
X172132571Y-89633428D02*
X172265904Y-89633428D01*
X172265904Y-89842952D02*
X172265904Y-89442952D01*
X172075428Y-89442952D01*
X171923047Y-89842952D02*
X171923047Y-89442952D01*
X171732571Y-89842952D02*
X171732571Y-89442952D01*
X171637333Y-89442952D01*
X171580190Y-89462000D01*
X171542095Y-89500095D01*
X171523047Y-89538190D01*
X171504000Y-89614380D01*
X171504000Y-89671523D01*
X171523047Y-89747714D01*
X171542095Y-89785809D01*
X171580190Y-89823904D01*
X171637333Y-89842952D01*
X171732571Y-89842952D01*
X171161142Y-89442952D02*
X171237333Y-89442952D01*
X171275428Y-89462000D01*
X171294476Y-89481047D01*
X171332571Y-89538190D01*
X171351619Y-89614380D01*
X171351619Y-89766761D01*
X171332571Y-89804857D01*
X171313523Y-89823904D01*
X171275428Y-89842952D01*
X171199238Y-89842952D01*
X171161142Y-89823904D01*
X171142095Y-89804857D01*
X171123047Y-89766761D01*
X171123047Y-89671523D01*
X171142095Y-89633428D01*
X171161142Y-89614380D01*
X171199238Y-89595333D01*
X171275428Y-89595333D01*
X171313523Y-89614380D01*
X171332571Y-89633428D01*
X171351619Y-89671523D01*
M02*
